<svg width="37" height="42" viewBox="0 0 37 42" fill="none" xmlns="http://www.w3.org/2000/svg">
<circle cx="20.2114" cy="14.068" r="6.49877" transform="rotate(3.99383 20.2114 14.068)" stroke="white" stroke-width="2"/>
<circle cx="20.2032" cy="14.0652" r="5.99877" transform="rotate(-16.2135 20.2032 14.0652)" stroke="white" stroke-width="3"/>
<ellipse cx="20.2032" cy="14.0652" rx="7.49877" ry="7.49877" transform="rotate(48.9938 20.2032 14.0652)" stroke="white" stroke-width="3"/>
<rect x="16.8639" y="17.9545" width="2.99951" height="19.4968" rx="1.49975" transform="rotate(13.7865 16.8639 17.9545)" fill="white"/>
<rect x="21.6869" y="18.5577" width="2.99951" height="17.4083" rx="1.49975" transform="rotate(-9.21563 21.6869 18.5577)" fill="white"/>
<rect x="15.8217" y="15.9186" width="2.99951" height="15.6991" rx="1.49975" transform="rotate(48.9938 15.8217 15.9186)" fill="white"/>
<rect x="9.27765" y="29.9912" width="5.99901" height="2.99951" rx="1.49975" transform="rotate(13.7865 9.27765 29.9912)" fill="white"/>
<rect x="20.2839" y="30.9129" width="5.22329" height="2.99951" rx="1.49975" transform="rotate(-9.21563 20.2839 30.9129)" fill="white"/>
<rect x="6.52441" y="20.4141" width="5.12648" height="2.99951" rx="1.49975" transform="rotate(48.9938 6.52441 20.4141)" fill="white"/>
<circle cx="20.2032" cy="14.0652" r="2" fill="white"/>
</svg>
