<svg width="38" height="39" viewBox="0 0 38 39" fill="none" xmlns="http://www.w3.org/2000/svg">
<mask id="path-1-outside-1_14_8" maskUnits="userSpaceOnUse" x="1.38042" y="-1.33154" width="31.2486" height="26.0078" fill="black">
<rect fill="white" x="1.38042" y="-1.33154" width="31.2486" height="26.0078"/>
<path d="M30.0319 13.2544C30.7309 12.9238 31.0354 12.0847 30.6367 11.4222C29.3622 9.30464 27.5448 7.5545 25.3621 6.36011C22.7685 4.94089 19.7921 4.37919 16.8597 4.7555C13.9272 5.13182 11.1892 6.42683 9.03794 8.45493C7.2275 10.1618 5.91092 12.3141 5.2124 14.6848C4.99388 15.4265 5.50041 16.1616 6.2602 16.305V16.305C7.01998 16.4483 7.74374 15.9446 7.98074 15.2086C8.55745 13.4177 9.57874 11.7932 10.9587 10.4923C12.6797 8.86979 14.8701 7.83378 17.2161 7.53273C19.562 7.23168 21.9431 7.68104 24.018 8.81641C25.6817 9.72679 27.0801 11.0408 28.0903 12.628C28.5054 13.2803 29.3329 13.585 30.0319 13.2544V13.2544Z"/>
</mask>
<path d="M30.0319 13.2544C30.7309 12.9238 31.0354 12.0847 30.6367 11.4222C29.3622 9.30464 27.5448 7.5545 25.3621 6.36011C22.7685 4.94089 19.7921 4.37919 16.8597 4.7555C13.9272 5.13182 11.1892 6.42683 9.03794 8.45493C7.2275 10.1618 5.91092 12.3141 5.2124 14.6848C4.99388 15.4265 5.50041 16.1616 6.2602 16.305V16.305C7.01998 16.4483 7.74374 15.9446 7.98074 15.2086C8.55745 13.4177 9.57874 11.7932 10.9587 10.4923C12.6797 8.86979 14.8701 7.83378 17.2161 7.53273C19.562 7.23168 21.9431 7.68104 24.018 8.81641C25.6817 9.72679 27.0801 11.0408 28.0903 12.628C28.5054 13.2803 29.3329 13.585 30.0319 13.2544V13.2544Z" fill="white"/>
<path d="M30.0319 13.2544C30.7309 12.9238 31.0354 12.0847 30.6367 11.4222C29.3622 9.30464 27.5448 7.5545 25.3621 6.36011C22.7685 4.94089 19.7921 4.37919 16.8597 4.7555C13.9272 5.13182 11.1892 6.42683 9.03794 8.45493C7.2275 10.1618 5.91092 12.3141 5.2124 14.6848C4.99388 15.4265 5.50041 16.1616 6.2602 16.305V16.305C7.01998 16.4483 7.74374 15.9446 7.98074 15.2086C8.55745 13.4177 9.57874 11.7932 10.9587 10.4923C12.6797 8.86979 14.8701 7.83378 17.2161 7.53273C19.562 7.23168 21.9431 7.68104 24.018 8.81641C25.6817 9.72679 27.0801 11.0408 28.0903 12.628C28.5054 13.2803 29.3329 13.585 30.0319 13.2544V13.2544Z" stroke="white" mask="url(#path-1-outside-1_14_8)"/>
<mask id="path-2-outside-2_14_8" maskUnits="userSpaceOnUse" x="5.2601" y="13.607" width="31.2486" height="26.0078" fill="black">
<rect fill="white" x="5.2601" y="13.607" width="31.2486" height="26.0078"/>
<path d="M7.85723 25.0288C7.15826 25.3594 6.85374 26.1986 7.25245 26.861C8.52695 28.9786 10.3443 30.7288 12.5271 31.9232C15.1207 33.3424 18.097 33.9041 21.0294 33.5278C23.9619 33.1514 26.7 31.8564 28.8512 29.8283C30.6616 28.1215 31.9782 25.9692 32.6767 23.5984C32.8952 22.8567 32.3887 22.1217 31.6289 21.9783V21.9783C30.8691 21.8349 30.1454 22.3387 29.9084 23.0747C29.3317 24.8656 28.3104 26.49 26.9304 27.791C25.2095 29.4135 23.019 30.4495 20.673 30.7505C18.3271 31.0516 15.946 30.6022 13.8711 29.4668C12.2074 28.5565 10.8091 27.2425 9.79884 25.6552C9.38369 25.0029 8.55619 24.6983 7.85723 25.0288V25.0288Z"/>
</mask>
<path d="M7.85723 25.0288C7.15826 25.3594 6.85374 26.1986 7.25245 26.861C8.52695 28.9786 10.3443 30.7288 12.5271 31.9232C15.1207 33.3424 18.097 33.9041 21.0294 33.5278C23.9619 33.1514 26.7 31.8564 28.8512 29.8283C30.6616 28.1215 31.9782 25.9692 32.6767 23.5984C32.8952 22.8567 32.3887 22.1217 31.6289 21.9783V21.9783C30.8691 21.8349 30.1454 22.3387 29.9084 23.0747C29.3317 24.8656 28.3104 26.49 26.9304 27.791C25.2095 29.4135 23.019 30.4495 20.673 30.7505C18.3271 31.0516 15.946 30.6022 13.8711 29.4668C12.2074 28.5565 10.8091 27.2425 9.79884 25.6552C9.38369 25.0029 8.55619 24.6983 7.85723 25.0288V25.0288Z" fill="white"/>
<path d="M7.85723 25.0288C7.15826 25.3594 6.85374 26.1986 7.25245 26.861C8.52695 28.9786 10.3443 30.7288 12.5271 31.9232C15.1207 33.3424 18.097 33.9041 21.0294 33.5278C23.9619 33.1514 26.7 31.8564 28.8512 29.8283C30.6616 28.1215 31.9782 25.9692 32.6767 23.5984C32.8952 22.8567 32.3887 22.1217 31.6289 21.9783V21.9783C30.8691 21.8349 30.1454 22.3387 29.9084 23.0747C29.3317 24.8656 28.3104 26.49 26.9304 27.791C25.2095 29.4135 23.019 30.4495 20.673 30.7505C18.3271 31.0516 15.946 30.6022 13.8711 29.4668C12.2074 28.5565 10.8091 27.2425 9.79884 25.6552C9.38369 25.0029 8.55619 24.6983 7.85723 25.0288V25.0288Z" stroke="white" mask="url(#path-2-outside-2_14_8)"/>
<path d="M32.3121 18.1889L26.9384 14.9958C26.6038 14.797 26.6146 14.309 26.9577 14.1252L32.65 11.0756C32.993 10.8918 33.4053 11.1532 33.3855 11.5418L33.0669 17.7846C33.0477 18.1605 32.6357 18.3812 32.3121 18.1889Z" fill="white" stroke="white"/>
<path d="M5.57699 20.0944L10.9507 23.2875C11.2853 23.4863 11.2745 23.9743 10.9314 24.1581L5.23912 27.2076C4.89607 27.3914 4.48381 27.1301 4.50365 26.7414L4.82222 20.4987C4.84141 20.1228 5.2534 19.9021 5.57699 20.0944Z" fill="white" stroke="white"/>
</svg>
