<svg width="40" height="32" viewBox="0 0 40 32" fill="none" xmlns="http://www.w3.org/2000/svg">
<path fill-rule="evenodd" clip-rule="evenodd" d="M10.678 1.97242L0 20.9573L4.87164 28.7493L9.30233 20.8702C9.33615 20.8002 9.37407 20.7323 9.41587 20.6669L15.5497 9.76177L10.678 1.97242ZM19.6186 8.80593C19.5658 8.7021 19.504 8.60314 19.4338 8.5102L14.1159 0H24.8863L36 19.7559H26.4653L19.6186 8.80593ZM17.9419 13.5931L14.4697 19.7559H21.7917L17.9366 13.5931H17.9419ZM12.2438 23.7192L7.90553 31.4346H30.125L34.9491 23.7192H12.2438Z" fill="black"/>
<rect width="8" height="20" rx="4" transform="matrix(1 0 0 -1 26 32)" fill="#6B4EDF"/>
<path d="M21.1295 14.4188C20.6567 15.0806 21.1298 16 21.9432 16H38.0568C38.8702 16 39.3433 15.0806 38.8705 14.4188L30.8137 3.13923C30.4149 2.58088 29.5851 2.58088 29.1863 3.13923L21.1295 14.4188Z" fill="#6B4EDF"/>
</svg>
