<svg width="40" height="32" viewBox="0 0 40 32" fill="none" xmlns="http://www.w3.org/2000/svg">
<path fill-rule="evenodd" clip-rule="evenodd" d="M10.678 1.97242L0 20.9573L4.87164 28.7493L9.30233 20.8702C9.33615 20.8002 9.37407 20.7323 9.41587 20.6669L15.5497 9.76177L10.678 1.97242ZM19.6186 8.80593C19.5658 8.7021 19.504 8.60314 19.4338 8.5102L14.1159 0H24.8863L36 19.7559H26.4653L19.6186 8.80593ZM17.9419 13.5931L14.4697 19.7559H21.7917L17.9366 13.5931H17.9419ZM12.2438 23.7192L7.90553 31.4346H30.125L34.9491 23.7192H12.2438Z" fill="white"/>
<rect x="26" y="2" width="8" height="20" rx="4" fill="#7DDF4E"/>
<path d="M21.1295 19.5812C20.6567 18.9194 21.1298 18 21.9432 18H38.0568C38.8702 18 39.3433 18.9194 38.8705 19.5812L30.8137 30.8608C30.4149 31.4191 29.5851 31.4191 29.1863 30.8608L21.1295 19.5812Z" fill="#7DDF4E"/>
</svg>
