<svg width="40" height="24" viewBox="0 0 40 24" fill="none" xmlns="http://www.w3.org/2000/svg">
<path d="M4.70949 17.4883L4.83342 14.0801L1.95196 15.9081L1.20836 14.6068L4.24473 13.0267L1.20836 11.4465L1.95196 10.1452L4.83342 11.9732L4.70949 8.56504H6.19669L6.07276 11.9732L8.95422 10.1452L9.69782 11.4465L6.66145 13.0267L9.69782 14.6068L8.95422 15.9081L6.07276 14.0801L6.19669 17.4883H4.70949ZM15.6157 17.4883L15.7396 14.0801L12.8581 15.9081L12.1145 14.6068L15.1509 13.0267L12.1145 11.4465L12.8581 10.1452L15.7396 11.9732L15.6157 8.56504H17.1029L16.9789 11.9732L19.8604 10.1452L20.604 11.4465L17.5676 13.0267L20.604 14.6068L19.8604 15.9081L16.9789 14.0801L17.1029 17.4883H15.6157Z" fill="white"/>
<rect x="22.2856" y="10.2857" width="17.1429" height="13.7143" rx="2.28571" fill="white"/>
<path d="M36.2856 6.85714V14H25.4284V6.85715C25.4284 3.85903 27.8589 1.42857 30.857 1.42857C33.8551 1.42857 36.2856 3.85903 36.2856 6.85714Z" stroke="white" stroke-width="2.85714"/>
</svg>
