<svg width="61" height="16" viewBox="0 0 61 16" fill="none" xmlns="http://www.w3.org/2000/svg">
<mask id="path-1-outside-1_14_11" maskUnits="userSpaceOnUse" x="-1" y="-1" width="63" height="18" fill="black">
<rect fill="white" x="-1" y="-1" width="63" height="18"/>
<path d="M4.82955 15.5152V0.363636H5.80019V15.5152H4.82955ZM8.09659 4.90909C8.02557 4.30934 7.73753 3.84375 7.23248 3.51231C6.72743 3.18087 6.10795 3.01515 5.37405 3.01515C4.83744 3.01515 4.3679 3.10196 3.96544 3.27557C3.56692 3.44918 3.25521 3.68789 3.0303 3.99171C2.80934 4.29553 2.69886 4.64078 2.69886 5.02746C2.69886 5.35101 2.7758 5.62918 2.92969 5.86198C3.08752 6.09083 3.28875 6.2822 3.53338 6.43608C3.77801 6.58602 4.03449 6.71031 4.30279 6.80895C4.5711 6.90365 4.81771 6.98059 5.04261 7.03977L6.27367 7.37121C6.58933 7.45407 6.9405 7.5685 7.32718 7.71449C7.7178 7.86048 8.09067 8.05974 8.44579 8.31226C8.80485 8.56084 9.10077 8.88045 9.33357 9.27107C9.56637 9.6617 9.68277 10.1411 9.68277 10.7093C9.68277 11.3643 9.51113 11.9561 9.16785 12.4848C8.82852 13.0136 8.33136 13.4338 7.67637 13.7455C7.02533 14.0572 6.23422 14.2131 5.30303 14.2131C4.43497 14.2131 3.68332 14.073 3.04806 13.7929C2.41675 13.5127 1.91959 13.1221 1.55658 12.621C1.19752 12.1199 0.994318 11.5379 0.94697 10.875H2.46212C2.50158 11.3327 2.65546 11.7115 2.92377 12.0114C3.19602 12.3073 3.5393 12.5283 3.9536 12.6742C4.37184 12.8163 4.82165 12.8873 5.30303 12.8873C5.86332 12.8873 6.3664 12.7966 6.81226 12.6151C7.25813 12.4296 7.61127 12.1731 7.87169 11.8456C8.1321 11.5142 8.26231 11.1275 8.26231 10.6856C8.26231 10.2831 8.14986 9.95565 7.92495 9.70313C7.70005 9.4506 7.40412 9.24542 7.03717 9.08759C6.67022 8.92977 6.27367 8.79167 5.84754 8.6733L4.35606 8.24716C3.40909 7.97491 2.65941 7.58625 2.10701 7.0812C1.55461 6.57615 1.27841 5.91525 1.27841 5.09848C1.27841 4.41982 1.46188 3.82797 1.82884 3.32292C2.19973 2.81392 2.69689 2.41935 3.32031 2.1392C3.94768 1.85511 4.64804 1.71307 5.4214 1.71307C6.20265 1.71307 6.8971 1.85314 7.50473 2.13329C8.11237 2.40949 8.59375 2.78827 8.94886 3.26965C9.30792 3.75103 9.49732 4.29751 9.51705 4.90909H8.09659ZM12.0961 14V1.87879H16.1917C17.1426 1.87879 17.9199 2.05043 18.5236 2.3937C19.1313 2.73303 19.5811 3.19271 19.873 3.77273C20.165 4.35275 20.311 4.99984 20.311 5.71402C20.311 6.42819 20.165 7.07726 19.873 7.66122C19.585 8.24519 19.1391 8.71078 18.5355 9.058C17.9318 9.40128 17.1584 9.57292 16.2154 9.57292H13.2798V8.27083H16.168C16.8191 8.27083 17.3419 8.15838 17.7364 7.93348C18.131 7.70857 18.4171 7.40475 18.5946 7.02202C18.7761 6.63534 18.8669 6.19934 18.8669 5.71402C18.8669 5.22869 18.7761 4.79467 18.5946 4.41193C18.4171 4.0292 18.129 3.72932 17.7305 3.51231C17.332 3.29135 16.8033 3.18087 16.1444 3.18087H13.5639V14H12.0961ZM29.47 15.4205C28.2626 15.4205 27.1953 15.2547 26.2681 14.9233C25.3408 14.5958 24.5615 14.1125 23.9302 13.4732C23.2989 12.834 22.8215 12.0508 22.4979 11.1236C22.1744 10.1963 22.0126 9.13494 22.0126 7.93939C22.0126 6.7833 22.1764 5.74953 22.5038 4.83807C22.8353 3.92661 23.3147 3.15325 23.9421 2.51799C24.5734 1.87879 25.3388 1.39149 26.2385 1.05611C27.142 0.720723 28.164 0.553031 29.3043 0.553031C30.413 0.553031 31.3837 0.734533 32.2162 1.09754C33.0527 1.4566 33.7511 1.94389 34.3114 2.55942C34.8756 3.17101 35.2978 3.85953 35.5779 4.625C35.862 5.39047 36.0041 6.17961 36.0041 6.99242C36.0041 7.56455 35.9765 8.14457 35.9212 8.73248C35.866 9.32039 35.7496 9.86095 35.572 10.3542C35.3945 10.8434 35.1202 11.238 34.7493 11.5379C34.3824 11.8378 33.8852 11.9877 33.2579 11.9877C32.9817 11.9877 32.6779 11.9443 32.3464 11.8575C32.015 11.7707 31.721 11.6267 31.4645 11.4254C31.2081 11.2242 31.0562 10.9539 31.0088 10.6146H30.9378C30.8431 10.8434 30.6971 11.0604 30.4998 11.2656C30.3065 11.4708 30.052 11.6345 29.7363 11.7569C29.4246 11.8792 29.0439 11.9324 28.594 11.9167C28.0811 11.8969 27.6293 11.7825 27.2387 11.5734C26.8481 11.3603 26.5206 11.0723 26.2562 10.7093C25.9958 10.3423 25.7985 9.91817 25.6644 9.43679C25.5341 8.95147 25.469 8.42866 25.469 7.86837C25.469 7.3357 25.548 6.84841 25.7058 6.40649C25.8636 5.96457 26.0826 5.57789 26.3627 5.24645C26.6468 4.91501 26.9783 4.65065 27.3571 4.45336C27.7398 4.25213 28.1521 4.12784 28.594 4.08049C28.9886 4.04104 29.3477 4.05879 29.6712 4.13376C29.9948 4.20478 30.2611 4.31329 30.4702 4.45928C30.6794 4.60133 30.8115 4.75915 30.8668 4.93276H30.9378V4.26989H32.1925V9.62027C32.1925 9.9517 32.2853 10.2437 32.4707 10.4962C32.6562 10.7487 32.9264 10.875 33.2815 10.875C33.684 10.875 33.9918 10.7369 34.2048 10.4607C34.4219 10.1845 34.5698 9.75836 34.6487 9.18229C34.7316 8.60622 34.773 7.86837 34.773 6.96875C34.773 6.44003 34.7 5.91919 34.554 5.40625C34.412 4.88936 34.195 4.40601 33.903 3.9562C33.615 3.50639 33.25 3.10985 32.8081 2.76657C32.3661 2.4233 31.8473 2.15499 31.2515 1.96165C30.6596 1.76436 29.9869 1.66572 29.2332 1.66572C28.306 1.66572 27.4754 1.80974 26.7415 2.09777C26.0116 2.38187 25.3901 2.79814 24.8772 3.34659C24.3682 3.8911 23.9795 4.55398 23.7112 5.33523C23.4469 6.11253 23.3147 6.99637 23.3147 7.98674C23.3147 8.9929 23.4469 9.8866 23.7112 10.6679C23.9795 11.4491 24.3741 12.108 24.8949 12.6446C25.4197 13.1813 26.0688 13.5896 26.8422 13.8698C27.6155 14.146 28.5072 14.2841 29.5173 14.2841C29.9514 14.2841 30.3795 14.2427 30.8017 14.1598C31.2239 14.0769 31.5967 13.9862 31.9203 13.8875C32.2438 13.7889 32.4766 13.7159 32.6187 13.6686L32.9501 14.7576C32.7055 14.8602 32.3859 14.9628 31.9913 15.0653C31.6007 15.1679 31.1824 15.2528 30.7366 15.3198C30.2946 15.3869 29.8725 15.4205 29.47 15.4205ZM28.7834 10.7093C29.3122 10.7093 29.7403 10.6027 30.0678 10.3897C30.3953 10.1766 30.634 9.85503 30.7839 9.42495C30.9338 8.99487 31.0088 8.45234 31.0088 7.79735C31.0088 7.13447 30.926 6.61758 30.7602 6.24669C30.5945 5.87579 30.3499 5.61537 30.0263 5.46544C29.7028 5.3155 29.3043 5.24053 28.8308 5.24053C28.381 5.24053 27.9963 5.3589 27.6767 5.59564C27.361 5.82844 27.1184 6.14015 26.9487 6.53078C26.783 6.91746 26.7001 7.33965 26.7001 7.79735C26.7001 8.3024 26.7672 8.77786 26.9013 9.22372C27.0355 9.66564 27.2545 10.0247 27.5583 10.3009C27.8621 10.5732 28.2705 10.7093 28.7834 10.7093ZM40.4149 8.69697L40.5096 6.0928L38.3079 7.48958L37.7397 6.49527L40.0598 5.28788L37.7397 4.08049L38.3079 3.08617L40.5096 4.48295L40.4149 1.87879H41.5513L41.4566 4.48295L43.6583 3.08617L44.2264 4.08049L41.9064 5.28788L44.2264 6.49527L43.6583 7.48958L41.4566 6.0928L41.5513 8.69697H40.4149ZM48.7482 8.69697L48.8429 6.0928L46.6412 7.48958L46.073 6.49527L48.3931 5.28788L46.073 4.08049L46.6412 3.08617L48.8429 4.48295L48.7482 1.87879H49.8846L49.7899 4.48295L51.9916 3.08617L52.5598 4.08049L50.2397 5.28788L52.5598 6.49527L51.9916 7.48958L49.7899 6.0928L49.8846 8.69697H48.7482ZM57.0816 8.69697L57.1763 6.0928L54.9745 7.48958L54.4064 6.49527L56.7264 5.28788L54.4064 4.08049L54.9745 3.08617L57.1763 4.48295L57.0816 1.87879H58.2179L58.1232 4.48295L60.3249 3.08617L60.8931 4.08049L58.573 5.28788L60.8931 6.49527L60.3249 7.48958L58.1232 6.0928L58.2179 8.69697H57.0816Z"/>
</mask>
<path d="M4.82955 15.5152V0.363636H5.80019V15.5152H4.82955ZM8.09659 4.90909C8.02557 4.30934 7.73753 3.84375 7.23248 3.51231C6.72743 3.18087 6.10795 3.01515 5.37405 3.01515C4.83744 3.01515 4.3679 3.10196 3.96544 3.27557C3.56692 3.44918 3.25521 3.68789 3.0303 3.99171C2.80934 4.29553 2.69886 4.64078 2.69886 5.02746C2.69886 5.35101 2.7758 5.62918 2.92969 5.86198C3.08752 6.09083 3.28875 6.2822 3.53338 6.43608C3.77801 6.58602 4.03449 6.71031 4.30279 6.80895C4.5711 6.90365 4.81771 6.98059 5.04261 7.03977L6.27367 7.37121C6.58933 7.45407 6.9405 7.5685 7.32718 7.71449C7.7178 7.86048 8.09067 8.05974 8.44579 8.31226C8.80485 8.56084 9.10077 8.88045 9.33357 9.27107C9.56637 9.6617 9.68277 10.1411 9.68277 10.7093C9.68277 11.3643 9.51113 11.9561 9.16785 12.4848C8.82852 13.0136 8.33136 13.4338 7.67637 13.7455C7.02533 14.0572 6.23422 14.2131 5.30303 14.2131C4.43497 14.2131 3.68332 14.073 3.04806 13.7929C2.41675 13.5127 1.91959 13.1221 1.55658 12.621C1.19752 12.1199 0.994318 11.5379 0.94697 10.875H2.46212C2.50158 11.3327 2.65546 11.7115 2.92377 12.0114C3.19602 12.3073 3.5393 12.5283 3.9536 12.6742C4.37184 12.8163 4.82165 12.8873 5.30303 12.8873C5.86332 12.8873 6.3664 12.7966 6.81226 12.6151C7.25813 12.4296 7.61127 12.1731 7.87169 11.8456C8.1321 11.5142 8.26231 11.1275 8.26231 10.6856C8.26231 10.2831 8.14986 9.95565 7.92495 9.70313C7.70005 9.4506 7.40412 9.24542 7.03717 9.08759C6.67022 8.92977 6.27367 8.79167 5.84754 8.6733L4.35606 8.24716C3.40909 7.97491 2.65941 7.58625 2.10701 7.0812C1.55461 6.57615 1.27841 5.91525 1.27841 5.09848C1.27841 4.41982 1.46188 3.82797 1.82884 3.32292C2.19973 2.81392 2.69689 2.41935 3.32031 2.1392C3.94768 1.85511 4.64804 1.71307 5.4214 1.71307C6.20265 1.71307 6.8971 1.85314 7.50473 2.13329C8.11237 2.40949 8.59375 2.78827 8.94886 3.26965C9.30792 3.75103 9.49732 4.29751 9.51705 4.90909H8.09659ZM12.0961 14V1.87879H16.1917C17.1426 1.87879 17.9199 2.05043 18.5236 2.3937C19.1313 2.73303 19.5811 3.19271 19.873 3.77273C20.165 4.35275 20.311 4.99984 20.311 5.71402C20.311 6.42819 20.165 7.07726 19.873 7.66122C19.585 8.24519 19.1391 8.71078 18.5355 9.058C17.9318 9.40128 17.1584 9.57292 16.2154 9.57292H13.2798V8.27083H16.168C16.8191 8.27083 17.3419 8.15838 17.7364 7.93348C18.131 7.70857 18.4171 7.40475 18.5946 7.02202C18.7761 6.63534 18.8669 6.19934 18.8669 5.71402C18.8669 5.22869 18.7761 4.79467 18.5946 4.41193C18.4171 4.0292 18.129 3.72932 17.7305 3.51231C17.332 3.29135 16.8033 3.18087 16.1444 3.18087H13.5639V14H12.0961ZM29.47 15.4205C28.2626 15.4205 27.1953 15.2547 26.2681 14.9233C25.3408 14.5958 24.5615 14.1125 23.9302 13.4732C23.2989 12.834 22.8215 12.0508 22.4979 11.1236C22.1744 10.1963 22.0126 9.13494 22.0126 7.93939C22.0126 6.7833 22.1764 5.74953 22.5038 4.83807C22.8353 3.92661 23.3147 3.15325 23.9421 2.51799C24.5734 1.87879 25.3388 1.39149 26.2385 1.05611C27.142 0.720723 28.164 0.553031 29.3043 0.553031C30.413 0.553031 31.3837 0.734533 32.2162 1.09754C33.0527 1.4566 33.7511 1.94389 34.3114 2.55942C34.8756 3.17101 35.2978 3.85953 35.5779 4.625C35.862 5.39047 36.0041 6.17961 36.0041 6.99242C36.0041 7.56455 35.9765 8.14457 35.9212 8.73248C35.866 9.32039 35.7496 9.86095 35.572 10.3542C35.3945 10.8434 35.1202 11.238 34.7493 11.5379C34.3824 11.8378 33.8852 11.9877 33.2579 11.9877C32.9817 11.9877 32.6779 11.9443 32.3464 11.8575C32.015 11.7707 31.721 11.6267 31.4645 11.4254C31.2081 11.2242 31.0562 10.9539 31.0088 10.6146H30.9378C30.8431 10.8434 30.6971 11.0604 30.4998 11.2656C30.3065 11.4708 30.052 11.6345 29.7363 11.7569C29.4246 11.8792 29.0439 11.9324 28.594 11.9167C28.0811 11.8969 27.6293 11.7825 27.2387 11.5734C26.8481 11.3603 26.5206 11.0723 26.2562 10.7093C25.9958 10.3423 25.7985 9.91817 25.6644 9.43679C25.5341 8.95147 25.469 8.42866 25.469 7.86837C25.469 7.3357 25.548 6.84841 25.7058 6.40649C25.8636 5.96457 26.0826 5.57789 26.3627 5.24645C26.6468 4.91501 26.9783 4.65065 27.3571 4.45336C27.7398 4.25213 28.1521 4.12784 28.594 4.08049C28.9886 4.04104 29.3477 4.05879 29.6712 4.13376C29.9948 4.20478 30.2611 4.31329 30.4702 4.45928C30.6794 4.60133 30.8115 4.75915 30.8668 4.93276H30.9378V4.26989H32.1925V9.62027C32.1925 9.9517 32.2853 10.2437 32.4707 10.4962C32.6562 10.7487 32.9264 10.875 33.2815 10.875C33.684 10.875 33.9918 10.7369 34.2048 10.4607C34.4219 10.1845 34.5698 9.75836 34.6487 9.18229C34.7316 8.60622 34.773 7.86837 34.773 6.96875C34.773 6.44003 34.7 5.91919 34.554 5.40625C34.412 4.88936 34.195 4.40601 33.903 3.9562C33.615 3.50639 33.25 3.10985 32.8081 2.76657C32.3661 2.4233 31.8473 2.15499 31.2515 1.96165C30.6596 1.76436 29.9869 1.66572 29.2332 1.66572C28.306 1.66572 27.4754 1.80974 26.7415 2.09777C26.0116 2.38187 25.3901 2.79814 24.8772 3.34659C24.3682 3.8911 23.9795 4.55398 23.7112 5.33523C23.4469 6.11253 23.3147 6.99637 23.3147 7.98674C23.3147 8.9929 23.4469 9.8866 23.7112 10.6679C23.9795 11.4491 24.3741 12.108 24.8949 12.6446C25.4197 13.1813 26.0688 13.5896 26.8422 13.8698C27.6155 14.146 28.5072 14.2841 29.5173 14.2841C29.9514 14.2841 30.3795 14.2427 30.8017 14.1598C31.2239 14.0769 31.5967 13.9862 31.9203 13.8875C32.2438 13.7889 32.4766 13.7159 32.6187 13.6686L32.9501 14.7576C32.7055 14.8602 32.3859 14.9628 31.9913 15.0653C31.6007 15.1679 31.1824 15.2528 30.7366 15.3198C30.2946 15.3869 29.8725 15.4205 29.47 15.4205ZM28.7834 10.7093C29.3122 10.7093 29.7403 10.6027 30.0678 10.3897C30.3953 10.1766 30.634 9.85503 30.7839 9.42495C30.9338 8.99487 31.0088 8.45234 31.0088 7.79735C31.0088 7.13447 30.926 6.61758 30.7602 6.24669C30.5945 5.87579 30.3499 5.61537 30.0263 5.46544C29.7028 5.3155 29.3043 5.24053 28.8308 5.24053C28.381 5.24053 27.9963 5.3589 27.6767 5.59564C27.361 5.82844 27.1184 6.14015 26.9487 6.53078C26.783 6.91746 26.7001 7.33965 26.7001 7.79735C26.7001 8.3024 26.7672 8.77786 26.9013 9.22372C27.0355 9.66564 27.2545 10.0247 27.5583 10.3009C27.8621 10.5732 28.2705 10.7093 28.7834 10.7093ZM40.4149 8.69697L40.5096 6.0928L38.3079 7.48958L37.7397 6.49527L40.0598 5.28788L37.7397 4.08049L38.3079 3.08617L40.5096 4.48295L40.4149 1.87879H41.5513L41.4566 4.48295L43.6583 3.08617L44.2264 4.08049L41.9064 5.28788L44.2264 6.49527L43.6583 7.48958L41.4566 6.0928L41.5513 8.69697H40.4149ZM48.7482 8.69697L48.8429 6.0928L46.6412 7.48958L46.073 6.49527L48.3931 5.28788L46.073 4.08049L46.6412 3.08617L48.8429 4.48295L48.7482 1.87879H49.8846L49.7899 4.48295L51.9916 3.08617L52.5598 4.08049L50.2397 5.28788L52.5598 6.49527L51.9916 7.48958L49.7899 6.0928L49.8846 8.69697H48.7482ZM57.0816 8.69697L57.1763 6.0928L54.9745 7.48958L54.4064 6.49527L56.7264 5.28788L54.4064 4.08049L54.9745 3.08617L57.1763 4.48295L57.0816 1.87879H58.2179L58.1232 4.48295L60.3249 3.08617L60.8931 4.08049L58.573 5.28788L60.8931 6.49527L60.3249 7.48958L58.1232 6.0928L58.2179 8.69697H57.0816Z" fill="white"/>
<path d="M4.82955 15.5152H3.82955C3.82955 16.0674 4.27726 16.5152 4.82955 16.5152V15.5152ZM4.82955 0.363636V-0.636364C4.27726 -0.636364 3.82955 -0.188649 3.82955 0.363636H4.82955ZM5.80019 0.363636H6.80019C6.80019 -0.188649 6.35247 -0.636364 5.80019 -0.636364V0.363636ZM5.80019 15.5152V16.5152C6.35247 16.5152 6.80019 16.0674 6.80019 15.5152H5.80019ZM8.09659 4.90909L7.10353 5.02669C7.16313 5.52997 7.5898 5.90909 8.09659 5.90909V4.90909ZM7.23248 3.51231L6.68382 4.34836L6.68382 4.34836L7.23248 3.51231ZM3.96544 3.27557L3.56934 2.35735L3.56605 2.35879L3.96544 3.27557ZM3.0303 3.99171L2.22653 3.39671L2.22157 3.40354L3.0303 3.99171ZM2.92969 5.86198L2.09547 6.41341C2.09908 6.41888 2.10275 6.42432 2.10647 6.42971L2.92969 5.86198ZM3.53338 6.43608L3.00089 7.2826L3.01082 7.28868L3.53338 6.43608ZM4.30279 6.80895L3.9577 7.74761L3.96997 7.75194L4.30279 6.80895ZM5.04261 7.03977L5.30259 6.07414L5.29711 6.0727L5.04261 7.03977ZM6.27367 7.37121L6.0137 8.33685L6.01978 8.33844L6.27367 7.37121ZM7.32718 7.71449L6.97396 8.65004L6.97709 8.65121L7.32718 7.71449ZM8.44579 8.31226L7.86622 9.12728L7.87658 9.13446L8.44579 8.31226ZM9.33357 9.27107L10.1926 8.75913L10.1926 8.75913L9.33357 9.27107ZM9.16785 12.4848L8.32911 11.9403L8.32626 11.9447L9.16785 12.4848ZM7.67637 13.7455L7.24665 12.8425L7.24453 12.8436L7.67637 13.7455ZM3.04806 13.7929L2.64245 14.7069L2.64456 14.7078L3.04806 13.7929ZM1.55658 12.621L0.743703 13.2034L0.746744 13.2076L1.55658 12.621ZM0.94697 10.875V9.875C0.669376 9.875 0.404273 9.99039 0.215107 10.1935C0.02594 10.3967 -0.0702667 10.6694 -0.050489 10.9462L0.94697 10.875ZM2.46212 10.875L3.45843 10.7891C3.41385 10.272 2.98111 9.875 2.46212 9.875V10.875ZM2.92377 12.0114L2.17846 12.6782L2.18784 12.6884L2.92377 12.0114ZM3.9536 12.6742L3.62123 13.6175L3.63202 13.6211L3.9536 12.6742ZM6.81226 12.6151L7.18931 13.5413L7.1963 13.5384L6.81226 12.6151ZM7.87169 11.8456L8.6544 12.468L8.658 12.4635L7.87169 11.8456ZM7.92495 9.70313L8.67172 9.03804L8.67172 9.03804L7.92495 9.70313ZM7.03717 9.08759L6.64206 10.0062L6.64206 10.0062L7.03717 9.08759ZM5.84754 8.6733L5.57281 9.63485L5.57989 9.63681L5.84754 8.6733ZM4.35606 8.24716L4.07975 9.20823L4.08134 9.20868L4.35606 8.24716ZM2.10701 7.0812L1.43224 7.81923L1.43224 7.81923L2.10701 7.0812ZM1.82884 3.32292L1.02064 2.734L1.01983 2.73512L1.82884 3.32292ZM3.32031 2.1392L3.7302 3.05135L3.73282 3.05016L3.32031 2.1392ZM7.50473 2.13329L7.08604 3.04143L7.09093 3.04365L7.50473 2.13329ZM8.94886 3.26965L8.14413 3.86331L8.14729 3.86755L8.94886 3.26965ZM9.51705 4.90909V5.90909C9.78785 5.90909 10.0471 5.79926 10.2355 5.60471C10.4238 5.41015 10.5253 5.14752 10.5165 4.87685L9.51705 4.90909ZM5.82955 15.5152V0.363636H3.82955V15.5152H5.82955ZM4.82955 1.36364H5.80019V-0.636364H4.82955V1.36364ZM4.80019 0.363636V15.5152H6.80019V0.363636H4.80019ZM5.80019 14.5152H4.82955V16.5152H5.80019V14.5152ZM9.08965 4.79149C8.98388 3.89829 8.5331 3.16974 7.78114 2.67626L6.68382 4.34836C6.94196 4.51776 7.06726 4.7204 7.10353 5.02669L9.08965 4.79149ZM7.78114 2.67626C7.08101 2.21681 6.26063 2.01515 5.37405 2.01515V4.01515C5.95528 4.01515 6.37385 4.14494 6.68382 4.34836L7.78114 2.67626ZM5.37405 2.01515C4.73098 2.01515 4.1216 2.11913 3.56934 2.35736L4.36153 4.19378C4.6142 4.08478 4.94389 4.01515 5.37405 4.01515V2.01515ZM3.56605 2.35879C3.0313 2.59174 2.57051 2.9321 2.22656 3.39674L3.83404 4.58669C3.93991 4.44369 4.10254 4.30661 4.36483 4.19235L3.56605 2.35879ZM2.22157 3.40354C1.87246 3.88357 1.69886 4.43607 1.69886 5.02746H3.69886C3.69886 4.84549 3.74623 4.7075 3.83904 4.57989L2.22157 3.40354ZM1.69886 5.02746C1.69886 5.51506 1.81705 5.99221 2.09547 6.41341L3.76391 5.31055C3.73456 5.26615 3.69886 5.18695 3.69886 5.02746H1.69886ZM2.10647 6.42971C2.34437 6.77466 2.64612 7.05935 3.00093 7.28254L4.06583 5.58962C3.93137 5.50504 3.83066 5.407 3.7529 5.29425L2.10647 6.42971ZM3.01082 7.28868C3.31143 7.47293 3.62734 7.62606 3.95773 7.74753L4.64786 5.87037C4.44164 5.79455 4.2446 5.69911 4.05594 5.58348L3.01082 7.28868ZM3.96997 7.75194C4.2586 7.85381 4.53174 7.93938 4.78812 8.00685L5.29711 6.0727C5.10368 6.0218 4.8836 5.95348 4.63561 5.86596L3.96997 7.75194ZM4.78264 8.00539L6.0137 8.33683L6.53365 6.4056L5.30259 6.07416L4.78264 8.00539ZM6.01978 8.33844C6.29434 8.41052 6.6117 8.51326 6.97396 8.65003L7.68039 6.77895C7.2693 6.62374 6.88432 6.49763 6.52757 6.40398L6.01978 8.33844ZM6.97709 8.65121C7.28268 8.76542 7.57882 8.92282 7.86626 9.12722L9.02531 7.49731C8.60252 7.19666 8.15292 6.95554 7.67726 6.77777L6.97709 8.65121ZM7.87658 9.13446C8.11306 9.29818 8.31194 9.51015 8.47455 9.78301L10.1926 8.75913C9.88961 8.25074 9.49663 7.82351 9.015 7.49007L7.87658 9.13446ZM8.47455 9.78301C8.59466 9.98456 8.68277 10.2768 8.68277 10.7093H10.6828C10.6828 10.0054 10.5381 9.33883 10.1926 8.75913L8.47455 9.78301ZM8.68277 10.7093C8.68277 11.1789 8.56289 11.5802 8.32912 11.9403L10.0066 13.0294C10.4594 12.332 10.6828 11.5496 10.6828 10.7093H8.68277ZM8.32626 11.9447C8.10247 12.2934 7.75975 12.5984 7.24665 12.8425L8.1061 14.6485C8.90297 14.2692 9.55456 13.7337 10.0094 13.025L8.32626 11.9447ZM7.24453 12.8436C6.76151 13.0748 6.12654 13.2131 5.30303 13.2131V15.2131C6.34189 15.2131 7.28916 15.0396 8.10822 14.6475L7.24453 12.8436ZM5.30303 13.2131C4.54022 13.2131 3.9321 13.0898 3.45156 12.8779L2.64456 14.7078C3.43454 15.0562 4.32973 15.2131 5.30303 15.2131V13.2131ZM3.45367 12.8788C2.96444 12.6617 2.61427 12.3765 2.36642 12.0343L0.746744 13.2076C1.2249 13.8677 1.86905 14.3637 2.64245 14.7069L3.45367 12.8788ZM2.36945 12.0385C2.12633 11.6992 1.97969 11.2974 1.94443 10.8038L-0.050489 10.9462C0.00894853 11.7784 0.268714 12.5405 0.743714 13.2034L2.36945 12.0385ZM0.94697 11.875H2.46212V9.875H0.94697V11.875ZM1.46582 10.9609C1.52112 11.6024 1.74586 12.1946 2.17853 12.6782L3.66901 11.3446C3.56506 11.2284 3.48204 11.063 3.45843 10.7891L1.46582 10.9609ZM2.18784 12.6884C2.58084 13.1156 3.06725 13.4222 3.62125 13.6174L4.28595 11.7311C4.01134 11.6343 3.81121 11.499 3.6597 11.3343L2.18784 12.6884ZM3.63202 13.6211C4.16272 13.8014 4.72207 13.8873 5.30303 13.8873V11.8873C4.92123 11.8873 4.58097 11.8312 4.27518 11.7274L3.63202 13.6211ZM5.30303 13.8873C5.97169 13.8873 6.60576 13.7788 7.1893 13.5413L6.43523 11.6889C6.12704 11.8143 5.75496 11.8873 5.30303 11.8873V13.8873ZM7.1963 13.5384C7.77407 13.2981 8.27343 12.9471 8.65439 12.468L7.08898 11.2233C6.9491 11.3992 6.74218 11.5612 6.42823 11.6917L7.1963 13.5384ZM8.658 12.4635C9.06389 11.9469 9.26231 11.3399 9.26231 10.6856H7.26231C7.26231 10.9151 7.20031 11.0815 7.08537 11.2278L8.658 12.4635ZM9.26231 10.6856C9.26231 10.0871 9.08973 9.50738 8.67172 9.03804L7.17819 10.3682C7.20999 10.4039 7.26231 10.4792 7.26231 10.6856H9.26231ZM8.67172 9.03804C8.33348 8.65827 7.90947 8.3742 7.43228 8.16896L6.64206 10.0062C6.89877 10.1166 7.06661 10.2429 7.17819 10.3682L8.67172 9.03804ZM7.43228 8.16896C7.01978 7.99154 6.58022 7.83896 6.11518 7.70978L5.57989 9.63681C5.96713 9.74438 6.32066 9.86799 6.64206 10.0062L7.43228 8.16896ZM6.12226 7.71177L4.63078 7.28564L4.08134 9.20868L5.57282 9.63482L6.12226 7.71177ZM4.63237 7.28609C3.78862 7.04351 3.19018 6.71657 2.78178 6.34317L1.43224 7.81923C2.12863 8.45593 3.02956 8.9063 4.07975 9.20823L4.63237 7.28609ZM2.78178 6.34317C2.4568 6.04605 2.27841 5.66311 2.27841 5.09848H0.278409C0.278409 6.16739 0.652414 7.10625 1.43224 7.81923L2.78178 6.34317ZM2.27841 5.09848C2.27841 4.6116 2.40597 4.22986 2.63784 3.91071L1.01983 2.73512C0.517801 3.42608 0.278409 4.22805 0.278409 5.09848H2.27841ZM2.63703 3.91183C2.89689 3.55522 3.25146 3.26647 3.7302 3.05134L2.91043 1.22707C2.14232 1.57223 1.50258 2.07262 1.02064 2.734L2.63703 3.91183ZM3.73282 3.05016C4.2155 2.83159 4.77277 2.71307 5.4214 2.71307V0.713068C4.52331 0.713068 3.67986 0.878642 2.9078 1.22825L3.73282 3.05016ZM5.4214 2.71307C6.08214 2.71307 6.62991 2.83112 7.08605 3.04142L7.92342 1.22515C7.16428 0.875163 6.32316 0.713068 5.4214 0.713068V2.71307ZM7.09093 3.04365C7.56173 3.25765 7.90153 3.53442 8.14414 3.8633L9.75359 2.676C9.28597 2.04212 8.66302 1.56132 7.91854 1.22292L7.09093 3.04365ZM8.14729 3.86755C8.38166 4.18175 8.5043 4.52997 8.51757 4.94133L10.5165 4.87685C10.4903 4.06505 10.2342 3.3203 9.75044 2.67175L8.14729 3.86755ZM9.51705 3.90909H8.09659V5.90909H9.51705V3.90909ZM12.0961 14H11.0961C11.0961 14.5523 11.5438 15 12.0961 15V14ZM12.0961 1.87879V0.878788C11.5438 0.878788 11.0961 1.3265 11.0961 1.87879H12.0961ZM18.5236 2.3937L18.0293 3.26302L18.036 3.26679L18.5236 2.3937ZM19.873 3.77273L18.9798 4.22237L18.9798 4.22237L19.873 3.77273ZM19.873 7.66122L18.9786 7.214L18.9762 7.21886L19.873 7.66122ZM18.5355 9.058L19.0298 9.9273L19.034 9.92485L18.5355 9.058ZM13.2798 9.57292H12.2798C12.2798 10.1252 12.7275 10.5729 13.2798 10.5729V9.57292ZM13.2798 8.27083V7.27083C12.7275 7.27083 12.2798 7.71855 12.2798 8.27083H13.2798ZM17.7364 7.93348L17.2412 7.0647L17.2412 7.0647L17.7364 7.93348ZM18.5946 7.02202L17.6894 6.59711L17.6875 6.60118L18.5946 7.02202ZM18.5946 4.41193L17.6875 4.83278L17.6911 4.84042L18.5946 4.41193ZM17.7305 3.51231L17.2456 4.3869L17.2523 4.39054L17.7305 3.51231ZM13.5639 3.18087V2.18087C13.0116 2.18087 12.5639 2.62859 12.5639 3.18087H13.5639ZM13.5639 14V15C14.1161 15 14.5639 14.5523 14.5639 14H13.5639ZM13.0961 14V1.87879H11.0961V14H13.0961ZM12.0961 2.87879H16.1917V0.878788H12.0961V2.87879ZM16.1917 2.87879C17.0305 2.87879 17.6218 3.03127 18.0293 3.26299L19.0179 1.52441C18.218 1.06958 17.2547 0.878788 16.1917 0.878788V2.87879ZM18.036 3.26679C18.4824 3.51603 18.7843 3.83387 18.9798 4.22237L20.7663 3.32309C20.3779 2.55155 19.7802 1.95004 19.0112 1.52062L18.036 3.26679ZM18.9798 4.22237C19.1948 4.64941 19.311 5.14017 19.311 5.71402H21.311C21.311 4.85952 21.1352 4.05608 20.7663 3.32308L18.9798 4.22237ZM19.311 5.71402C19.311 6.28776 19.1948 6.78157 18.9786 7.21401L20.7675 8.10844C21.1352 7.37294 21.311 6.56861 21.311 5.71402H19.311ZM18.9762 7.21886C18.7821 7.61241 18.4812 7.93559 18.0369 8.19116L19.034 9.92485C19.7971 9.48597 20.3879 8.87796 20.7699 8.10358L18.9762 7.21886ZM18.0411 8.18871C17.6325 8.42105 17.0446 8.57292 16.2154 8.57292V10.5729C17.2722 10.5729 18.231 10.3815 19.0298 9.92729L18.0411 8.18871ZM16.2154 8.57292H13.2798V10.5729H16.2154V8.57292ZM14.2798 9.57292V8.27083H12.2798V9.57292H14.2798ZM13.2798 9.27083H16.168V7.27083H13.2798V9.27083ZM16.168 9.27083C16.9219 9.27083 17.6347 9.1425 18.2316 8.80225L17.2412 7.0647C17.049 7.17427 16.7162 7.27083 16.168 7.27083V9.27083ZM18.2316 8.80225C18.7922 8.48276 19.23 8.02873 19.5018 7.44285L17.6875 6.60118C17.6042 6.78078 17.4699 6.93438 17.2412 7.0647L18.2316 8.80225ZM19.4999 7.44692C19.7518 6.91027 19.8669 6.32618 19.8669 5.71402H17.8669C17.8669 6.0725 17.8005 6.36041 17.6894 6.59711L19.4999 7.44692ZM19.8669 5.71402C19.8669 5.10208 19.7518 4.51833 19.4982 3.98345L17.6911 4.84042C17.8004 5.071 17.8669 5.3553 17.8669 5.71402H19.8669ZM19.5018 3.99109C19.227 3.39884 18.7805 2.94543 18.2088 2.63408L17.2523 4.39054C17.4776 4.51322 17.6071 4.65956 17.6875 4.83277L19.5018 3.99109ZM18.2154 2.63775C17.617 2.30592 16.9021 2.18087 16.1444 2.18087V4.18087C16.7044 4.18087 17.0471 4.27679 17.2456 4.38688L18.2154 2.63775ZM16.1444 2.18087H13.5639V4.18087H16.1444V2.18087ZM12.5639 3.18087V14H14.5639V3.18087H12.5639ZM13.5639 13H12.0961V15H13.5639V13ZM26.2681 14.9233L26.6046 13.9816L26.6011 13.9804L26.2681 14.9233ZM22.4979 11.1236L21.5538 11.453L22.4979 11.1236ZM22.5038 4.83807L21.564 4.49632L21.5628 4.49993L22.5038 4.83807ZM23.9421 2.51799L23.2306 1.81529L23.2305 1.81532L23.9421 2.51799ZM26.2385 1.05611L25.8905 0.118605L25.8891 0.119105L26.2385 1.05611ZM32.2162 1.09754L31.8165 2.01421L31.8218 2.01646L32.2162 1.09754ZM34.3114 2.55942L33.5718 3.23258L33.5764 3.23751L34.3114 2.55942ZM35.5779 4.625L34.6389 4.96869L34.6404 4.97294L35.5779 4.625ZM35.9212 8.73248L34.9256 8.63893L34.9256 8.63893L35.9212 8.73248ZM35.572 10.3542L36.512 10.6953L36.5129 10.6929L35.572 10.3542ZM34.7493 11.5379L34.1206 10.7602L34.1166 10.7636L34.7493 11.5379ZM31.0088 10.6146L31.9992 10.4764C31.9303 9.98229 31.5077 9.61458 31.0088 9.61458V10.6146ZM30.9378 10.6146V9.61458C30.5332 9.61458 30.1685 9.85838 30.0138 10.2322L30.9378 10.6146ZM30.4998 11.2656L29.779 10.5725L29.772 10.5798L30.4998 11.2656ZM29.7363 11.7569L29.375 10.8244L29.371 10.826L29.7363 11.7569ZM28.594 11.9167L28.5556 12.9159L28.559 12.9161L28.594 11.9167ZM27.2387 11.5734L26.7598 12.4513L26.7667 12.455L27.2387 11.5734ZM26.2562 10.7093L25.4406 11.2881L25.4479 11.298L26.2562 10.7093ZM25.6644 9.43679L24.6985 9.69593L24.7011 9.70525L25.6644 9.43679ZM25.7058 6.40649L26.6475 6.74282L26.6475 6.74282L25.7058 6.40649ZM26.3627 5.24645L25.6035 4.59564L25.599 4.60091L26.3627 5.24645ZM27.3571 4.45336L27.819 5.34028L27.8224 5.33848L27.3571 4.45336ZM28.594 4.08049L28.4945 3.08543L28.4875 3.08618L28.594 4.08049ZM29.6712 4.13376L29.4455 5.10802L29.4568 5.1105L29.6712 4.13376ZM30.4702 4.45928L29.8978 5.27931L29.9083 5.2865L30.4702 4.45928ZM30.8668 4.93276L29.9138 5.23597C30.0459 5.65095 30.4313 5.93276 30.8668 5.93276V4.93276ZM30.9378 4.93276V5.93276C31.4901 5.93276 31.9378 5.48505 31.9378 4.93276H30.9378ZM30.9378 4.26989V3.26989C30.3855 3.26989 29.9378 3.7176 29.9378 4.26989H30.9378ZM32.1925 4.26989H33.1925C33.1925 3.7176 32.7448 3.26989 32.1925 3.26989V4.26989ZM32.4707 10.4962L31.6647 11.0881L31.6647 11.0881L32.4707 10.4962ZM34.2048 10.4607L33.4185 9.84285L33.4131 9.8499L34.2048 10.4607ZM34.6487 9.18229L33.6589 9.03992L33.658 9.04657L34.6487 9.18229ZM34.554 5.40625L33.5897 5.67125L33.5922 5.68L34.554 5.40625ZM33.903 3.9562L33.0608 4.49548L33.0642 4.50067L33.903 3.9562ZM31.2515 1.96165L30.9352 2.91036L30.9428 2.91282L31.2515 1.96165ZM26.7415 2.09777L27.1042 3.02969L27.1069 3.02865L26.7415 2.09777ZM24.8772 3.34659L24.1468 2.66352L24.1467 2.66371L24.8772 3.34659ZM23.7112 5.33523L22.7655 5.01041L22.7645 5.01324L23.7112 5.33523ZM23.7112 10.6679L22.764 10.9884L22.7655 10.9927L23.7112 10.6679ZM24.8949 12.6446L24.1774 13.3411L24.18 13.3438L24.8949 12.6446ZM26.8422 13.8698L26.5016 14.81L26.5058 14.8115L26.8422 13.8698ZM30.8017 14.1598L30.9943 15.1411L30.9943 15.1411L30.8017 14.1598ZM31.9203 13.8875L31.6287 12.931L31.9203 13.8875ZM32.6187 13.6686L33.5753 13.3774C33.4968 13.1193 33.3173 12.9039 33.0776 12.7801C32.8379 12.6563 32.5584 12.6346 32.3024 12.7199L32.6187 13.6686ZM32.9501 14.7576L33.3368 15.6798C33.8099 15.4814 34.0561 14.9572 33.9068 14.4664L32.9501 14.7576ZM31.9913 15.0653L31.7397 14.0975L31.7373 14.0981L31.9913 15.0653ZM30.7366 15.3198L30.5878 14.331L30.5865 14.3312L30.7366 15.3198ZM30.7839 9.42495L31.7282 9.75415L31.7282 9.75415L30.7839 9.42495ZM30.7602 6.24669L31.6732 5.83875L31.6732 5.83874L30.7602 6.24669ZM27.6767 5.59564L28.2702 6.40045L28.2719 6.3992L27.6767 5.59564ZM26.9487 6.53078L26.0315 6.13238L26.0295 6.13686L26.9487 6.53078ZM26.9013 9.22372L25.9437 9.51185L25.9445 9.5142L26.9013 9.22372ZM27.5583 10.3009L26.8856 11.0409L26.8909 11.0456L27.5583 10.3009ZM29.47 14.4205C28.3523 14.4205 27.4026 14.2669 26.6046 13.9816L25.9315 15.8649C26.988 16.2426 28.1729 16.4205 29.47 16.4205V14.4205ZM26.6011 13.9804C25.8028 13.6984 25.1569 13.2922 24.6417 12.7705L23.2187 14.1759C23.9662 14.9327 24.8788 15.4932 25.935 15.8662L26.6011 13.9804ZM24.6417 12.7705C24.1241 12.2465 23.7214 11.5945 23.4421 10.7941L21.5538 11.453C21.9216 12.5072 22.4737 13.4216 23.2187 14.1759L24.6417 12.7705ZM23.4421 10.7941C23.1625 9.99296 23.0126 9.04633 23.0126 7.93939H21.0126C21.0126 9.22355 21.1862 10.3997 21.5538 11.453L23.4421 10.7941ZM23.0126 7.93939C23.0126 6.87684 23.1632 5.96047 23.4449 5.17621L21.5628 4.49993C21.1896 5.53858 21.0126 6.68977 21.0126 7.93939H23.0126ZM23.4436 5.17981C23.7302 4.39187 24.1359 3.74486 24.6536 3.22067L23.2305 1.81532C22.4935 2.56164 21.9404 3.46135 21.5641 4.49633L23.4436 5.17981ZM24.6535 3.22069C25.1757 2.69201 25.815 2.28123 26.5878 1.99311L25.8891 0.119105C24.8627 0.501759 23.971 1.06556 23.2306 1.81529L24.6535 3.22069ZM26.5864 1.99361C27.3603 1.70636 28.2615 1.55303 29.3043 1.55303V-0.446969C28.0664 -0.446969 26.9237 -0.264917 25.8905 0.118606L26.5864 1.99361ZM29.3043 1.55303C30.3051 1.55303 31.1346 1.71688 31.8165 2.01419L32.6159 0.180883C31.6327 -0.247815 30.5209 -0.446969 29.3043 -0.446969V1.55303ZM31.8218 2.01646C32.5394 2.32451 33.1164 2.73223 33.5719 3.23257L35.0509 1.88628C34.3857 1.15556 33.566 0.588684 32.6106 0.178617L31.8218 2.01646ZM33.5764 3.23751C34.0531 3.75424 34.405 4.32967 34.6389 4.96869L36.517 4.28131C36.1906 3.3894 35.6981 2.58777 35.0464 1.88134L33.5764 3.23751ZM34.6404 4.97294C34.8834 5.62758 35.0041 6.29893 35.0041 6.99242H37.0041C37.0041 6.06029 36.8407 5.15336 36.5155 4.27706L34.6404 4.97294ZM35.0041 6.99242C35.0041 7.53234 34.978 8.08113 34.9256 8.63893L36.9168 8.82603C36.9749 8.20801 37.0041 7.59677 37.0041 6.99242H35.0041ZM34.9256 8.63893C34.8773 9.15352 34.7769 9.61057 34.6311 10.0154L36.5129 10.6929C36.7223 10.1113 36.8547 9.48726 36.9168 8.82603L34.9256 8.63893ZM34.632 10.013C34.5107 10.3473 34.3372 10.5852 34.1206 10.7602L35.3781 12.3155C35.9033 11.8908 36.2782 11.3395 36.512 10.6953L34.632 10.013ZM34.1166 10.7636C33.9788 10.8761 33.7298 10.9877 33.2579 10.9877V12.9877C34.0407 12.9877 34.786 12.7994 35.3821 12.3122L34.1166 10.7636ZM33.2579 10.9877C33.0848 10.9877 32.8674 10.9602 32.5998 10.8901L32.0931 12.8249C32.4883 12.9284 32.8786 12.9877 33.2579 12.9877V10.9877ZM32.5998 10.8901C32.3938 10.8362 32.2252 10.7512 32.0818 10.6387L30.8473 12.2122C31.2169 12.5022 31.6361 12.7052 32.0931 12.8249L32.5998 10.8901ZM32.0818 10.6387C32.0402 10.606 32.0128 10.5739 31.9992 10.4764L30.0184 10.7528C30.0995 11.334 30.376 11.8424 30.8473 12.2122L32.0818 10.6387ZM31.0088 9.61458H30.9378V11.6146H31.0088V9.61458ZM30.0138 10.2322C29.9734 10.3298 29.9025 10.4441 29.779 10.5725L31.2207 11.9587C31.4917 11.6768 31.7128 11.357 31.8618 10.9969L30.0138 10.2322ZM29.772 10.5798C29.6994 10.6569 29.5792 10.7453 29.375 10.8244L30.0976 12.6893C30.5248 12.5238 30.9135 12.2847 31.2276 11.9514L29.772 10.5798ZM29.371 10.826C29.2224 10.8843 28.9866 10.9298 28.6291 10.9173L28.559 12.9161C29.1011 12.9351 29.6268 12.8741 30.1016 12.6878L29.371 10.826ZM28.6325 10.9174C28.2471 10.9026 27.9479 10.8188 27.7107 10.6918L26.7667 12.455C27.3107 12.7462 27.9151 12.8913 28.5556 12.9159L28.6325 10.9174ZM27.7175 10.6955C27.458 10.5539 27.2427 10.3651 27.0646 10.1206L25.4479 11.298C25.7985 11.7794 26.2381 12.1667 26.7598 12.4513L27.7175 10.6955ZM27.0717 10.1305C26.8851 9.86753 26.7342 9.55075 26.6276 9.16833L24.7011 9.70525C24.8628 10.2856 25.1065 10.8171 25.4407 11.288L27.0717 10.1305ZM26.6302 9.17766C26.5251 8.78591 26.469 8.35107 26.469 7.86837H24.469C24.469 8.50626 24.5432 9.11703 24.6985 9.69592L26.6302 9.17766ZM26.469 7.86837C26.469 7.43502 26.5331 7.06327 26.6475 6.74282L24.764 6.07015C24.5628 6.63354 24.469 7.23638 24.469 7.86837H26.469ZM26.6475 6.74282C26.7683 6.40459 26.9298 6.12468 27.1265 5.89198L25.599 4.60091C25.2354 5.0311 24.9589 5.52454 24.764 6.07015L26.6475 6.74282ZM27.122 5.89724C27.3249 5.66058 27.556 5.47724 27.819 5.34028L26.8951 3.56645C26.4005 3.82405 25.9688 4.16944 25.6035 4.59566L27.122 5.89724ZM27.8224 5.33848C28.0904 5.1976 28.3805 5.10909 28.7006 5.0748L28.4875 3.08618C27.9237 3.14659 27.3892 3.30667 26.8917 3.56825L27.8224 5.33848ZM28.6935 5.07553C28.9998 5.0449 29.2469 5.06192 29.4455 5.10795L29.897 3.15957C29.4485 3.05566 28.9774 3.03717 28.4945 3.08545L28.6935 5.07553ZM29.4568 5.1105C29.6885 5.16136 29.8235 5.22739 29.8978 5.27924L31.0427 3.63932C30.6987 3.39919 30.301 3.24821 29.8856 3.15702L29.4568 5.1105ZM29.9083 5.2865C29.9531 5.3169 29.9645 5.33219 29.9596 5.32625C29.9566 5.32277 29.9493 5.31341 29.9405 5.29774C29.9315 5.28187 29.9219 5.26113 29.9138 5.23597L31.8197 4.62956C31.6745 4.17313 31.3559 3.85198 31.0321 3.63206L29.9083 5.2865ZM30.8668 5.93276H30.9378V3.93276H30.8668V5.93276ZM31.9378 4.93276V4.26989H29.9378V4.93276H31.9378ZM30.9378 5.26989H32.1925V3.26989H30.9378V5.26989ZM31.1925 4.26989V9.62027H33.1925V4.26989H31.1925ZM31.1925 9.62027C31.1925 10.1515 31.3457 10.6537 31.6647 11.0881L33.2767 9.9043C33.2248 9.83367 33.1925 9.7519 33.1925 9.62027H31.1925ZM31.6647 11.0881C32.0657 11.6341 32.6569 11.875 33.2815 11.875V9.875C33.2519 9.875 33.2352 9.87235 33.229 9.8711C33.2233 9.86995 33.2266 9.87003 33.2357 9.87429C33.2452 9.8787 33.2556 9.88515 33.2649 9.89289C33.274 9.90047 33.2776 9.90557 33.2767 9.9043L31.6647 11.0881ZM33.2815 11.875C33.94 11.875 34.5635 11.6329 34.9966 11.0715L33.4131 9.8499C33.4067 9.85815 33.4037 9.86016 33.4048 9.85936C33.4059 9.85845 33.4066 9.85825 33.4048 9.85907C33.4021 9.86029 33.3685 9.875 33.2815 9.875V11.875ZM34.9912 11.0785C35.3679 10.599 35.5505 9.96738 35.6395 9.31801L33.658 9.04657C33.5891 9.54935 33.4758 9.77 33.4185 9.84288L34.9912 11.0785ZM35.6385 9.32466C35.7308 8.68332 35.773 7.89331 35.773 6.96875H33.773C33.773 7.84343 33.7324 8.52912 33.6589 9.03992L35.6385 9.32466ZM35.773 6.96875C35.773 6.34664 35.6869 5.73371 35.5158 5.13251L33.5922 5.68C33.7131 6.10468 33.773 6.53341 33.773 6.96875H35.773ZM35.5183 5.14127C35.349 4.52528 35.0897 3.94767 34.7418 3.41173L33.0642 4.50067C33.3003 4.86436 33.475 5.25344 33.5898 5.67124L35.5183 5.14127ZM34.7451 3.41694C34.3928 2.86672 33.949 2.38661 33.4215 1.97684L32.1946 3.5563C32.5509 3.83308 32.8371 4.14607 33.0609 4.49547L34.7451 3.41694ZM33.4215 1.97684C32.8779 1.55455 32.2531 1.23533 31.5601 1.01047L30.9428 2.91282C31.4415 3.07464 31.8544 3.29205 32.1946 3.5563L33.4215 1.97684ZM31.5677 1.01296C30.8552 0.775469 30.0727 0.66572 29.2332 0.66572V2.66572C29.901 2.66572 30.464 2.75326 30.9353 2.91033L31.5677 1.01296ZM29.2332 0.66572C28.2026 0.66572 27.245 0.825903 26.3762 1.1669L27.1069 3.02865C27.7058 2.79357 28.4094 2.66572 29.2332 2.66572V0.66572ZM26.3788 1.16586C25.5154 1.5019 24.7666 2.00088 24.1468 2.66352L25.6075 4.02966C26.0137 3.5954 26.5077 3.26183 27.1042 3.02968L26.3788 1.16586ZM24.1467 2.66371C23.5316 3.32173 23.0745 4.11049 22.7655 5.01041L24.657 5.66004C24.8846 4.99747 25.2048 4.46047 25.6077 4.02947L24.1467 2.66371ZM22.7645 5.01324C22.4584 5.91309 22.3147 6.90872 22.3147 7.98674H24.3147C24.3147 7.08402 24.4353 6.31197 24.658 5.65722L22.7645 5.01324ZM22.3147 7.98674C22.3147 9.07878 22.458 10.084 22.764 10.9884L24.6585 10.3473C24.4358 9.68916 24.3147 8.90702 24.3147 7.98674H22.3147ZM22.7655 10.9927C23.0765 11.8984 23.5437 12.6883 24.1774 13.3411L25.6125 11.9482C25.2045 11.5278 24.8826 10.9998 24.657 10.343L22.7655 10.9927ZM24.18 13.3438C24.8196 13.9979 25.6006 14.4836 26.5016 14.81L27.1827 12.9296C26.537 12.6956 26.0198 12.3646 25.6099 11.9455L24.18 13.3438ZM26.5058 14.8115C27.4087 15.134 28.418 15.2841 29.5173 15.2841V13.2841C28.5964 13.2841 27.8223 13.158 27.1785 12.928L26.5058 14.8115ZM29.5173 15.2841C30.0154 15.2841 30.5081 15.2365 30.9943 15.1411L30.6091 13.1785C30.2509 13.2488 29.8873 13.2841 29.5173 13.2841V15.2841ZM30.9943 15.1411C31.4414 15.0533 31.8484 14.9549 32.2119 14.8441L31.6287 12.931C31.345 13.0175 31.0064 13.1006 30.6091 13.1785L30.9943 15.1411ZM32.2119 14.8441C32.5361 14.7452 32.7796 14.669 32.9349 14.6172L32.3024 12.7199C32.1737 12.7628 31.9516 12.8326 31.6287 12.931L32.2119 14.8441ZM31.662 13.9597L31.9934 15.0487L33.9068 14.4664L33.5753 13.3774L31.662 13.9597ZM32.5634 13.8354C32.3793 13.9126 32.1098 14.0013 31.7397 14.0975L32.2429 16.0332C32.6619 15.9242 33.0316 15.8078 33.3368 15.6798L32.5634 13.8354ZM31.7373 14.0981C31.385 14.1906 31.0022 14.2686 30.5878 14.331L30.8853 16.3087C31.3626 16.2369 31.8163 16.1452 32.2453 16.0325L31.7373 14.0981ZM30.5865 14.3312C30.1889 14.3915 29.8171 14.4205 29.47 14.4205V16.4205C29.9278 16.4205 30.4004 16.3823 30.8866 16.3085L30.5865 14.3312ZM28.7834 11.7093C29.4393 11.7093 30.0754 11.5778 30.6131 11.2279L29.5224 9.55147C29.4052 9.62774 29.1851 9.70928 28.7834 9.70928V11.7093ZM30.6131 11.2279C31.156 10.8747 31.5179 10.3573 31.7282 9.75415L29.8396 9.09576C29.75 9.35278 29.6345 9.47852 29.5224 9.55147L30.6131 11.2279ZM31.7282 9.75415C31.9273 9.18289 32.0088 8.5196 32.0088 7.79735H30.0088C30.0088 8.38507 29.9404 8.80685 29.8396 9.09576L31.7282 9.75415ZM32.0088 7.79735C32.0088 7.07194 31.9213 6.394 31.6732 5.83875L29.8472 6.65463C29.9306 6.84117 30.0088 7.197 30.0088 7.79735H32.0088ZM31.6732 5.83874C31.4236 5.28008 31.0199 4.8237 30.4468 4.55813L29.6059 6.37275C29.6799 6.40705 29.7654 6.4715 29.8472 6.65463L31.6732 5.83874ZM30.4468 4.55813C29.9558 4.33057 29.4042 4.24053 28.8308 4.24053V6.24053C29.2044 6.24053 29.4498 6.30043 29.6059 6.37275L30.4468 4.55813ZM28.8308 4.24053C28.196 4.24053 27.5954 4.41134 27.0814 4.79209L28.2719 6.3992C28.3971 6.30646 28.566 6.24053 28.8308 6.24053V4.24053ZM27.0831 4.79084C26.6136 5.13711 26.2651 5.59445 26.0315 6.13239L27.8659 6.92916C27.9716 6.68585 28.1084 6.51977 28.2702 6.40045L27.0831 4.79084ZM26.0295 6.13686C25.8059 6.6586 25.7001 7.21624 25.7001 7.79735H27.7001C27.7001 7.46306 27.76 7.17631 27.8678 6.9247L26.0295 6.13686ZM25.7001 7.79735C25.7001 8.39177 25.7792 8.96496 25.9437 9.51185L27.8589 8.9356C27.7552 8.59075 27.7001 8.21303 27.7001 7.79735H25.7001ZM25.9445 9.5142C26.1243 10.1068 26.4322 10.6286 26.8856 11.0408L28.231 9.56096C28.0768 9.42081 27.9466 9.2245 27.8582 8.93324L25.9445 9.5142ZM26.8909 11.0456C27.4219 11.5214 28.0899 11.7093 28.7834 11.7093V9.70928C28.4511 9.70928 28.3024 9.62491 28.2257 9.55616L26.8909 11.0456ZM40.4149 8.69697L39.4156 8.66063C39.4057 8.93197 39.5066 9.19566 39.6951 9.39111C39.8835 9.58656 40.1434 9.69697 40.4149 9.69697V8.69697ZM40.5096 6.0928L41.5089 6.12914C41.5224 5.75814 41.3293 5.41019 41.0073 5.22543C40.6852 5.04067 40.2874 5.04952 39.9739 5.24839L40.5096 6.0928ZM38.3079 7.48958L37.4396 7.98572C37.5752 8.22295 37.8019 8.39438 38.0671 8.46017C38.3323 8.52595 38.6129 8.48036 38.8436 8.33399L38.3079 7.48958ZM37.7397 6.49527L37.2781 5.6082C37.0368 5.73378 36.857 5.95225 36.7803 6.21324C36.7036 6.47423 36.7365 6.75521 36.8715 6.9914L37.7397 6.49527ZM40.0598 5.28788L40.5214 6.17495C40.8522 6.00278 41.0598 5.66082 41.0598 5.28788C41.0598 4.91493 40.8522 4.57298 40.5214 4.40081L40.0598 5.28788ZM37.7397 4.08049L36.8715 3.58435C36.7365 3.82054 36.7036 4.10153 36.7803 4.36252C36.857 4.62351 37.0368 4.84198 37.2781 4.96756L37.7397 4.08049ZM38.3079 3.08617L38.8436 2.24177C38.6129 2.0954 38.3323 2.04981 38.0671 2.11559C37.8019 2.18138 37.5752 2.35281 37.4396 2.59004L38.3079 3.08617ZM40.5096 4.48295L39.9739 5.32736C40.2874 5.52624 40.6852 5.53508 41.0073 5.35032C41.3293 5.16557 41.5224 4.81762 41.5089 4.44661L40.5096 4.48295ZM40.4149 1.87879V0.878788C40.1434 0.878788 39.8835 0.989197 39.6951 1.18465C39.5066 1.3801 39.4057 1.64379 39.4156 1.91513L40.4149 1.87879ZM41.5513 1.87879L42.5506 1.91513C42.5605 1.64379 42.4596 1.3801 42.2711 1.18465C42.0826 0.989197 41.8228 0.878788 41.5513 0.878788V1.87879ZM41.4566 4.48295L40.4572 4.44661C40.4437 4.81762 40.6369 5.16557 40.9589 5.35032C41.2809 5.53508 41.6788 5.52624 41.9923 5.32736L41.4566 4.48295ZM43.6583 3.08617L44.5265 2.59004C44.3909 2.35281 44.1642 2.18138 43.899 2.11559C43.6338 2.04981 43.3533 2.0954 43.1226 2.24177L43.6583 3.08617ZM44.2264 4.08049L44.6881 4.96756C44.9294 4.84198 45.1091 4.62351 45.1859 4.36252C45.2626 4.10153 45.2297 3.82054 45.0947 3.58435L44.2264 4.08049ZM41.9064 5.28788L41.4447 4.40081C41.1139 4.57298 40.9064 4.91493 40.9064 5.28788C40.9064 5.66082 41.1139 6.00278 41.4447 6.17495L41.9064 5.28788ZM44.2264 6.49527L45.0947 6.9914C45.2297 6.75521 45.2626 6.47423 45.1859 6.21324C45.1091 5.95225 44.9294 5.73378 44.6881 5.6082L44.2264 6.49527ZM43.6583 7.48958L43.1226 8.33399C43.3533 8.48036 43.6338 8.52595 43.899 8.46017C44.1642 8.39438 44.3909 8.22295 44.5265 7.98572L43.6583 7.48958ZM41.4566 6.0928L41.9923 5.24839C41.6788 5.04952 41.2809 5.04067 40.9589 5.22543C40.6369 5.41019 40.4437 5.75814 40.4572 6.12914L41.4566 6.0928ZM41.5513 8.69697V9.69697C41.8228 9.69697 42.0826 9.58656 42.2711 9.39111C42.4596 9.19566 42.5605 8.93197 42.5506 8.66063L41.5513 8.69697ZM41.4142 8.73331L41.5089 6.12914L39.5102 6.05646L39.4156 8.66063L41.4142 8.73331ZM39.9739 5.24839L37.7722 6.64518L38.8436 8.33399L41.0453 6.93721L39.9739 5.24839ZM39.1761 6.99344L38.6079 5.99913L36.8715 6.9914L37.4396 7.98572L39.1761 6.99344ZM38.2013 7.38233L40.5214 6.17495L39.5981 4.40081L37.2781 5.6082L38.2013 7.38233ZM40.5214 4.40081L38.2013 3.19342L37.2781 4.96756L39.5981 6.17495L40.5214 4.40081ZM38.6079 4.57663L39.1761 3.58231L37.4396 2.59004L36.8715 3.58435L38.6079 4.57663ZM37.7722 3.93058L39.9739 5.32736L41.0453 3.63855L38.8436 2.24177L37.7722 3.93058ZM41.5089 4.44661L41.4142 1.84245L39.4156 1.91513L39.5102 4.51929L41.5089 4.44661ZM40.4149 2.87879H41.5513V0.878788H40.4149V2.87879ZM40.5519 1.84245L40.4572 4.44661L42.4559 4.51929L42.5506 1.91513L40.5519 1.84245ZM41.9923 5.32736L44.194 3.93058L43.1226 2.24177L40.9209 3.63855L41.9923 5.32736ZM42.79 3.58231L43.3582 4.57663L45.0947 3.58435L44.5265 2.59004L42.79 3.58231ZM43.7648 3.19342L41.4447 4.40081L42.368 6.17495L44.6881 4.96756L43.7648 3.19342ZM41.4447 6.17495L43.7648 7.38233L44.6881 5.6082L42.368 4.40081L41.4447 6.17495ZM43.3582 5.99913L42.79 6.99344L44.5265 7.98572L45.0947 6.9914L43.3582 5.99913ZM44.194 6.64518L41.9923 5.24839L40.9209 6.93721L43.1226 8.33399L44.194 6.64518ZM40.4572 6.12914L40.5519 8.73331L42.5506 8.66063L42.4559 6.05646L40.4572 6.12914ZM41.5513 7.69697H40.4149V9.69697H41.5513V7.69697ZM48.7482 8.69697L47.7489 8.66063C47.739 8.93197 47.8399 9.19566 48.0284 9.39111C48.2169 9.58656 48.4767 9.69697 48.7482 9.69697V8.69697ZM48.8429 6.0928L49.8423 6.12914C49.8558 5.75814 49.6626 5.41019 49.3406 5.22543C49.0186 5.04067 48.6207 5.04952 48.3072 5.24839L48.8429 6.0928ZM46.6412 7.48958L45.773 7.98572C45.9085 8.22295 46.1353 8.39438 46.4004 8.46017C46.6656 8.52595 46.9462 8.48036 47.1769 8.33399L46.6412 7.48958ZM46.073 6.49527L45.6114 5.6082C45.3701 5.73378 45.1903 5.95225 45.1136 6.21324C45.0369 6.47423 45.0698 6.75521 45.2048 6.9914L46.073 6.49527ZM48.3931 5.28788L48.8547 6.17495C49.1856 6.00278 49.3931 5.66082 49.3931 5.28788C49.3931 4.91493 49.1856 4.57298 48.8547 4.40081L48.3931 5.28788ZM46.073 4.08049L45.2048 3.58435C45.0698 3.82054 45.0369 4.10153 45.1136 4.36252C45.1903 4.62351 45.3701 4.84198 45.6114 4.96756L46.073 4.08049ZM46.6412 3.08617L47.1769 2.24177C46.9462 2.0954 46.6656 2.04981 46.4004 2.11559C46.1353 2.18138 45.9085 2.35281 45.773 2.59004L46.6412 3.08617ZM48.8429 4.48295L48.3072 5.32736C48.6207 5.52624 49.0186 5.53508 49.3406 5.35032C49.6626 5.16557 49.8558 4.81762 49.8423 4.44661L48.8429 4.48295ZM48.7482 1.87879V0.878788C48.4767 0.878788 48.2169 0.989197 48.0284 1.18465C47.8399 1.3801 47.739 1.64379 47.7489 1.91513L48.7482 1.87879ZM49.8846 1.87879L50.8839 1.91513C50.8938 1.64379 50.7929 1.3801 50.6044 1.18465C50.416 0.989197 50.1561 0.878788 49.8846 0.878788V1.87879ZM49.7899 4.48295L48.7906 4.44661C48.7771 4.81762 48.9702 5.16557 49.2922 5.35032C49.6142 5.53508 50.0121 5.52624 50.3256 5.32736L49.7899 4.48295ZM51.9916 3.08617L52.8598 2.59004C52.7243 2.35281 52.4976 2.18138 52.2324 2.11559C51.9672 2.04981 51.6866 2.0954 51.4559 2.24177L51.9916 3.08617ZM52.5598 4.08049L53.0214 4.96756C53.2627 4.84198 53.4425 4.62351 53.5192 4.36252C53.5959 4.10153 53.563 3.82054 53.428 3.58435L52.5598 4.08049ZM50.2397 5.28788L49.7781 4.40081C49.4472 4.57298 49.2397 4.91493 49.2397 5.28788C49.2397 5.66082 49.4472 6.00278 49.7781 6.17495L50.2397 5.28788ZM52.5598 6.49527L53.428 6.9914C53.563 6.75521 53.5959 6.47423 53.5192 6.21324C53.4425 5.95225 53.2627 5.73378 53.0214 5.6082L52.5598 6.49527ZM51.9916 7.48958L51.4559 8.33399C51.6866 8.48036 51.9672 8.52595 52.2324 8.46017C52.4976 8.39438 52.7243 8.22295 52.8598 7.98572L51.9916 7.48958ZM49.7899 6.0928L50.3256 5.24839C50.0121 5.04952 49.6142 5.04067 49.2922 5.22543C48.9702 5.41019 48.7771 5.75814 48.7906 6.12914L49.7899 6.0928ZM49.8846 8.69697V9.69697C50.1561 9.69697 50.416 9.58656 50.6044 9.39111C50.7929 9.19566 50.8938 8.93197 50.8839 8.66063L49.8846 8.69697ZM49.7476 8.73331L49.8423 6.12914L47.8436 6.05646L47.7489 8.66063L49.7476 8.73331ZM48.3072 5.24839L46.1055 6.64518L47.1769 8.33399L49.3786 6.93721L48.3072 5.24839ZM47.5095 6.99344L46.9413 5.99913L45.2048 6.9914L45.773 7.98572L47.5095 6.99344ZM46.5347 7.38233L48.8547 6.17495L47.9315 4.40081L45.6114 5.6082L46.5347 7.38233ZM48.8547 4.40081L46.5347 3.19342L45.6114 4.96756L47.9315 6.17495L48.8547 4.40081ZM46.9413 4.57663L47.5095 3.58231L45.773 2.59004L45.2048 3.58435L46.9413 4.57663ZM46.1055 3.93058L48.3072 5.32736L49.3786 3.63855L47.1769 2.24177L46.1055 3.93058ZM49.8423 4.44661L49.7476 1.84245L47.7489 1.91513L47.8436 4.51929L49.8423 4.44661ZM48.7482 2.87879H49.8846V0.878788H48.7482V2.87879ZM48.8852 1.84245L48.7906 4.44661L50.7892 4.51929L50.8839 1.91513L48.8852 1.84245ZM50.3256 5.32736L52.5273 3.93058L51.4559 2.24177L49.2542 3.63855L50.3256 5.32736ZM51.1234 3.58231L51.6915 4.57663L53.428 3.58435L52.8598 2.59004L51.1234 3.58231ZM52.0981 3.19342L49.7781 4.40081L50.7013 6.17495L53.0214 4.96756L52.0981 3.19342ZM49.7781 6.17495L52.0981 7.38233L53.0214 5.6082L50.7013 4.40081L49.7781 6.17495ZM51.6915 5.99913L51.1234 6.99344L52.8598 7.98572L53.428 6.9914L51.6915 5.99913ZM52.5273 6.64518L50.3256 5.24839L49.2542 6.93721L51.4559 8.33399L52.5273 6.64518ZM48.7906 6.12914L48.8852 8.73331L50.8839 8.66063L50.7892 6.05646L48.7906 6.12914ZM49.8846 7.69697H48.7482V9.69697H49.8846V7.69697ZM57.0816 8.69697L56.0822 8.66063C56.0723 8.93197 56.1732 9.19566 56.3617 9.39111C56.5502 9.58656 56.81 9.69697 57.0816 9.69697V8.69697ZM57.1763 6.0928L58.1756 6.12914C58.1891 5.75814 57.9959 5.41019 57.6739 5.22543C57.3519 5.04067 56.954 5.04952 56.6406 5.24839L57.1763 6.0928ZM54.9745 7.48958L54.1063 7.98572C54.2419 8.22295 54.4686 8.39438 54.7338 8.46017C54.999 8.52595 55.2795 8.48036 55.5102 8.33399L54.9745 7.48958ZM54.4064 6.49527L53.9447 5.6082C53.7034 5.73378 53.5237 5.95225 53.447 6.21324C53.3702 6.47423 53.4032 6.75521 53.5381 6.9914L54.4064 6.49527ZM56.7264 5.28788L57.1881 6.17495C57.5189 6.00278 57.7264 5.66082 57.7264 5.28788C57.7264 4.91493 57.5189 4.57298 57.1881 4.40081L56.7264 5.28788ZM54.4064 4.08049L53.5381 3.58435C53.4032 3.82054 53.3702 4.10153 53.447 4.36252C53.5237 4.62351 53.7034 4.84198 53.9447 4.96756L54.4064 4.08049ZM54.9745 3.08617L55.5102 2.24177C55.2795 2.0954 54.999 2.04981 54.7338 2.11559C54.4686 2.18138 54.2419 2.35281 54.1063 2.59004L54.9745 3.08617ZM57.1763 4.48295L56.6406 5.32736C56.954 5.52624 57.3519 5.53508 57.6739 5.35032C57.9959 5.16557 58.1891 4.81762 58.1756 4.44661L57.1763 4.48295ZM57.0816 1.87879V0.878788C56.81 0.878788 56.5502 0.989197 56.3617 1.18465C56.1732 1.3801 56.0723 1.64379 56.0822 1.91513L57.0816 1.87879ZM58.2179 1.87879L59.2173 1.91513C59.2271 1.64379 59.1262 1.3801 58.9378 1.18465C58.7493 0.989197 58.4894 0.878788 58.2179 0.878788V1.87879ZM58.1232 4.48295L57.1239 4.44661C57.1104 4.81762 57.3035 5.16557 57.6256 5.35032C57.9476 5.53508 58.3454 5.52624 58.6589 5.32736L58.1232 4.48295ZM60.3249 3.08617L61.1932 2.59004C61.0576 2.35281 60.8309 2.18138 60.5657 2.11559C60.3005 2.04981 60.0199 2.0954 59.7892 2.24177L60.3249 3.08617ZM60.8931 4.08049L61.3547 4.96756C61.5961 4.84198 61.7758 4.62351 61.8525 4.36252C61.9292 4.10153 61.8963 3.82054 61.7614 3.58435L60.8931 4.08049ZM58.573 5.28788L58.1114 4.40081C57.7806 4.57298 57.573 4.91493 57.573 5.28788C57.573 5.66082 57.7806 6.00278 58.1114 6.17495L58.573 5.28788ZM60.8931 6.49527L61.7614 6.9914C61.8963 6.75521 61.9292 6.47423 61.8525 6.21324C61.7758 5.95225 61.5961 5.73378 61.3547 5.6082L60.8931 6.49527ZM60.3249 7.48958L59.7892 8.33399C60.0199 8.48036 60.3005 8.52595 60.5657 8.46017C60.8309 8.39438 61.0576 8.22295 61.1932 7.98572L60.3249 7.48958ZM58.1232 6.0928L58.6589 5.24839C58.3454 5.04952 57.9476 5.04067 57.6256 5.22543C57.3035 5.41019 57.1104 5.75814 57.1239 6.12914L58.1232 6.0928ZM58.2179 8.69697V9.69697C58.4894 9.69697 58.7493 9.58656 58.9378 9.39111C59.1262 9.19566 59.2271 8.93197 59.2173 8.66063L58.2179 8.69697ZM58.0809 8.73331L58.1756 6.12914L56.1769 6.05646L56.0822 8.66063L58.0809 8.73331ZM56.6406 5.24839L54.4388 6.64518L55.5102 8.33399L57.712 6.93721L56.6406 5.24839ZM55.8428 6.99344L55.2746 5.99913L53.5381 6.9914L54.1063 7.98572L55.8428 6.99344ZM54.868 7.38233L57.1881 6.17495L56.2648 4.40081L53.9447 5.6082L54.868 7.38233ZM57.1881 4.40081L54.868 3.19342L53.9447 4.96756L56.2648 6.17495L57.1881 4.40081ZM55.2746 4.57663L55.8428 3.58231L54.1063 2.59004L53.5381 3.58435L55.2746 4.57663ZM54.4388 3.93058L56.6406 5.32736L57.712 3.63855L55.5102 2.24177L54.4388 3.93058ZM58.1756 4.44661L58.0809 1.84245L56.0822 1.91513L56.1769 4.51929L58.1756 4.44661ZM57.0816 2.87879H58.2179V0.878788H57.0816V2.87879ZM57.2186 1.84245L57.1239 4.44661L59.1226 4.51929L59.2173 1.91513L57.2186 1.84245ZM58.6589 5.32736L60.8606 3.93058L59.7892 2.24177L57.5875 3.63855L58.6589 5.32736ZM59.4567 3.58231L60.0249 4.57663L61.7614 3.58435L61.1932 2.59004L59.4567 3.58231ZM60.4315 3.19342L58.1114 4.40081L59.0347 6.17495L61.3547 4.96756L60.4315 3.19342ZM58.1114 6.17495L60.4315 7.38233L61.3547 5.6082L59.0347 4.40081L58.1114 6.17495ZM60.0249 5.99913L59.4567 6.99344L61.1932 7.98572L61.7614 6.9914L60.0249 5.99913ZM60.8606 6.64518L58.6589 5.24839L57.5875 6.93721L59.7892 8.33399L60.8606 6.64518ZM57.1239 6.12914L57.2186 8.73331L59.2173 8.66063L59.1226 6.05646L57.1239 6.12914ZM58.2179 7.69697H57.0816V9.69697H58.2179V7.69697Z" fill="white" mask="url(#path-1-outside-1_14_11)"/>
</svg>
