<svg width="59" height="30" viewBox="0 0 59 30" fill="none" xmlns="http://www.w3.org/2000/svg">
<rect x="0.878418" y="0.895569" width="12" height="28" stroke="white"/>
<rect x="15.8784" y="0.895569" width="12" height="28" stroke="white"/>
<rect x="30.8784" y="0.895569" width="12" height="28" stroke="white"/>
<rect x="45.8784" y="0.895569" width="12" height="28" stroke="white"/>
<path d="M36.2739 23.6545V7.10909H37.3338V23.6545H36.2739ZM39.8415 12.0727C39.7639 11.4178 39.4494 10.9094 38.8979 10.5474C38.3464 10.1855 37.6699 10.0045 36.8685 10.0045C36.2825 10.0045 35.7697 10.0993 35.3303 10.2889C34.8951 10.4785 34.5547 10.7392 34.3091 11.071C34.0678 11.4027 33.9472 11.7797 33.9472 12.202C33.9472 12.5553 34.0312 12.8591 34.1992 13.1133C34.3716 13.3632 34.5913 13.5722 34.8585 13.7402C35.1256 13.9039 35.4057 14.0397 35.6987 14.1474C35.9916 14.2508 36.2609 14.3348 36.5065 14.3994L37.8509 14.7614C38.1955 14.8518 38.579 14.9768 39.0013 15.1362C39.4278 15.2956 39.835 15.5132 40.2228 15.789C40.6149 16.0604 40.938 16.4094 41.1923 16.836C41.4465 17.2626 41.5736 17.7861 41.5736 18.4065C41.5736 19.1218 41.3862 19.7681 41.0113 20.3455C40.6407 20.9228 40.0978 21.3817 39.3826 21.7221C38.6717 22.0625 37.8078 22.2327 36.7909 22.2327C35.843 22.2327 35.0222 22.0797 34.3285 21.7738C33.6391 21.4679 33.0962 21.0413 32.6998 20.4941C32.3077 19.9469 32.0858 19.3114 32.0341 18.5875H33.6886C33.7317 19.0873 33.8998 19.5009 34.1928 19.8284C34.4901 20.1516 34.8649 20.3929 35.3173 20.5523C35.7741 20.7074 36.2652 20.7849 36.7909 20.7849C37.4027 20.7849 37.9521 20.6858 38.439 20.4876C38.9259 20.2851 39.3115 20.0051 39.5959 19.6474C39.8803 19.2855 40.0224 18.8633 40.0224 18.3807C40.0224 17.9412 39.8996 17.5836 39.654 17.3078C39.4085 17.0321 39.0853 16.808 38.6846 16.6357C38.2839 16.4633 37.8509 16.3125 37.3855 16.1832L35.7568 15.7179C34.7227 15.4206 33.9041 14.9962 33.3009 14.4447C32.6976 13.8932 32.396 13.1714 32.396 12.2795C32.396 11.5384 32.5964 10.8921 32.9971 10.3406C33.4021 9.7848 33.945 9.35393 34.6258 9.04801C35.3109 8.73778 36.0757 8.58267 36.9202 8.58267C37.7733 8.58267 38.5316 8.73563 39.1952 9.04155C39.8587 9.34316 40.3844 9.75679 40.7722 10.2825C41.1643 10.8081 41.3711 11.4049 41.3926 12.0727H39.8415Z" fill="white"/>
<path d="M17.4756 22V20.7472L22.1807 15.5966C22.7329 14.9934 23.1876 14.469 23.5449 14.0236C23.9022 13.5735 24.1667 13.1512 24.3384 12.7568C24.5147 12.3578 24.6028 11.9402 24.6028 11.504C24.6028 11.0028 24.4822 10.569 24.2409 10.2024C24.0043 9.83584 23.6795 9.55279 23.2665 9.35327C22.8535 9.15374 22.3895 9.05398 21.8744 9.05398C21.3269 9.05398 20.849 9.16766 20.4406 9.39503C20.0369 9.61776 19.7237 9.93097 19.501 10.3347C19.2829 10.7384 19.1739 11.2116 19.1739 11.7545H17.5312C17.5312 10.9193 17.7238 10.1862 18.1089 9.55511C18.4941 8.92405 19.0184 8.4322 19.682 8.07955C20.3501 7.72689 21.0995 7.55057 21.9301 7.55057C22.7653 7.55057 23.5054 7.72689 24.1504 8.07955C24.7954 8.4322 25.3012 8.90781 25.6678 9.50639C26.0343 10.105 26.2176 10.7708 26.2176 11.504C26.2176 12.0283 26.1225 12.5411 25.9322 13.0422C25.7466 13.5387 25.4218 14.0932 24.9578 14.7057C24.4984 15.3135 23.8604 16.056 23.0437 16.933L19.842 20.3574V20.4688H26.4682V22H17.4756Z" fill="white"/>
<path d="M54.5341 9.90909V11.6136H47.75V9.90909H54.5341ZM49.7273 6.77273H51.7386V19.25C51.7386 19.8182 51.821 20.2443 51.9858 20.5284C52.1562 20.8068 52.3722 20.9943 52.6335 21.0909C52.9006 21.1818 53.1818 21.2273 53.4773 21.2273C53.6989 21.2273 53.8807 21.2159 54.0227 21.1932C54.1648 21.1648 54.2784 21.142 54.3636 21.125L54.7727 22.9318C54.6364 22.983 54.446 23.0341 54.2017 23.0852C53.9574 23.142 53.6477 23.1705 53.2727 23.1705C52.7045 23.1705 52.1477 23.0483 51.6023 22.804C51.0625 22.5597 50.6136 22.1875 50.2557 21.6875C49.9034 21.1875 49.7273 20.5568 49.7273 19.7955V6.77273Z" fill="white"/>
<path d="M6.625 22.179C5.66193 22.179 4.84162 21.9169 4.16406 21.3928C3.48651 20.8643 2.96875 20.0994 2.6108 19.098C2.25284 18.0923 2.07386 16.8778 2.07386 15.4545C2.07386 14.0398 2.25284 12.8317 2.6108 11.8303C2.97301 10.8246 3.4929 10.0575 4.17045 9.52912C4.85227 8.99645 5.67045 8.73011 6.625 8.73011C7.57955 8.73011 8.3956 8.99645 9.07315 9.52912C9.75497 10.0575 10.2749 10.8246 10.6328 11.8303C10.995 12.8317 11.1761 14.0398 11.1761 15.4545C11.1761 16.8778 10.9972 18.0923 10.6392 19.098C10.2812 20.0994 9.76349 20.8643 9.08594 21.3928C8.40838 21.9169 7.58807 22.179 6.625 22.179ZM6.625 20.7727C7.57955 20.7727 8.32102 20.3125 8.84943 19.392C9.37784 18.4716 9.64205 17.1591 9.64205 15.4545C9.64205 14.321 9.5206 13.3558 9.2777 12.5589C9.03906 11.7621 8.69389 11.1548 8.24219 10.7372C7.79474 10.3196 7.25568 10.1108 6.625 10.1108C5.67898 10.1108 4.93963 10.5774 4.40696 11.5107C3.87429 12.4396 3.60795 13.7543 3.60795 15.4545C3.60795 16.5881 3.72727 17.5511 3.96591 18.3438C4.20455 19.1364 4.54759 19.7393 4.99503 20.1527C5.44673 20.5661 5.99006 20.7727 6.625 20.7727Z" fill="white"/>
</svg>
