<svg width="14" height="14" viewBox="0 0 14 14" fill="none" xmlns="http://www.w3.org/2000/svg">
<g clip-path="url(#clip0_44_4)">
<path fill-rule="evenodd" clip-rule="evenodd" d="M1.077 0H4.847C5.441 0 5.923 0.482 5.923 1.077V4.847C5.923 5.441 5.441 5.923 4.846 5.923H1.076C0.790535 5.92273 0.516853 5.80915 0.315092 5.6072C0.113332 5.40525 -1.23053e-07 5.13147 0 4.846L0 1.076C0 0.483 0.482 0 1.077 0ZM9.154 8.077H12.924C13.518 8.077 14 8.559 14 9.154V12.924C14 13.518 13.518 14 12.923 14H9.153C8.86754 13.9997 8.59385 13.8861 8.39209 13.6842C8.19033 13.4823 8.077 13.2085 8.077 12.923V9.153C8.077 8.559 8.559 8.077 9.154 8.077ZM4.846 8.077H1.076C0.483 8.077 0 8.559 0 9.154V12.924C0 13.517 0.482 14 1.077 14H4.847C5.441 14 5.923 13.518 5.923 12.923V9.153C5.923 8.559 5.441 8.077 4.846 8.077ZM10.761 0C10.9599 0 11.1507 0.0790176 11.2913 0.21967C11.432 0.360322 11.511 0.551088 11.511 0.75V2.483H13.243C13.3415 2.483 13.439 2.5024 13.53 2.54009C13.621 2.57778 13.7037 2.63303 13.7733 2.70267C13.843 2.77231 13.8982 2.85499 13.9359 2.94599C13.9736 3.03698 13.993 3.13451 13.993 3.233C13.993 3.33149 13.9736 3.42902 13.9359 3.52001C13.8982 3.61101 13.843 3.69369 13.7733 3.76333C13.7037 3.83297 13.621 3.88822 13.53 3.92591C13.439 3.9636 13.3415 3.983 13.243 3.983H11.511V5.715C11.511 5.91391 11.432 6.10468 11.2913 6.24533C11.1507 6.38598 10.9599 6.465 10.761 6.465C10.5621 6.465 10.3713 6.38598 10.2307 6.24533C10.09 6.10468 10.011 5.91391 10.011 5.715V3.983H8.278C8.07909 3.983 7.88832 3.90398 7.74767 3.76333C7.60702 3.62268 7.528 3.43191 7.528 3.233C7.528 3.03409 7.60702 2.84332 7.74767 2.70267C7.88832 2.56202 8.07909 2.483 8.278 2.483H10.011V0.75C10.011 0.551088 10.09 0.360322 10.2307 0.21967C10.3713 0.0790176 10.5621 0 10.761 0Z" fill="white"/>
</g>
<defs>
<clipPath id="clip0_44_4">
<rect width="14" height="14" fill="white"/>
</clipPath>
</defs>
</svg>
