<svg xmlns="http://www.w3.org/2000/svg" width="undefined" height="undefined" viewBox="0 0 24 24">
    <path fill="currentColor" d="M10.162 13.508q.38 0 .717-.089q.336-.088.67-.227l4.12 4.096l1.523-1.523l-4.115-4.102q.158-.294.236-.636q.08-.342.08-.75q0-1.322-.945-2.26q-.945-.94-2.275-.94q-.367 0-.694.082q-.327.082-.635.228l2.081 2.1l-1.554 1.553l-2.12-2.1q-.141.304-.225.643q-.084.338-.084.705q0 1.33.945 2.275t2.275.945ZM12.003 21q-1.866 0-3.51-.708q-1.643-.709-2.859-1.924q-1.216-1.214-1.925-2.856Q3 13.87 3 12.003q0-1.866.708-3.51q.709-1.643 1.924-2.859q1.214-1.216 2.856-1.925Q10.13 3 11.997 3q1.866 0 3.51.708q1.643.709 2.859 1.924q1.216 1.214 1.925 2.856Q21 10.13 21 11.997q0 1.866-.708 3.51q-.709 1.643-1.924 2.859q-1.214 1.216-2.856 1.925Q13.87 21 12.003 21ZM12 20q3.35 0 5.675-2.325T20 12q0-3.35-2.325-5.675T12 4Q8.65 4 6.325 6.325T4 12q0 3.35 2.325 5.675T12 20Zm0-8Z"/>
</svg>