<svg width="20" height="20" viewBox="0 0 20 20" fill="none" xmlns="http://www.w3.org/2000/svg">
<mask id="mask0_27_43" style="mask-type:alpha" maskUnits="userSpaceOnUse" x="0" y="0" width="20" height="20">
<path d="M14 16C14.2652 16 14.5196 15.8946 14.7071 15.7071C14.8946 15.5196 15 15.2652 15 15C15 14.7348 14.8946 14.4804 14.7071 14.2929C14.5196 14.1054 14.2652 14 14 14V16ZM6 14C5.73478 14 5.48043 14.1054 5.29289 14.2929C5.10536 14.4804 5 14.7348 5 15C5 15.2652 5.10536 15.5196 5.29289 15.7071C5.48043 15.8946 5.73478 16 6 16V14ZM6.707 5.293C6.61475 5.19749 6.50441 5.12131 6.3824 5.0689C6.2604 5.01649 6.12918 4.9889 5.9964 4.98775C5.86362 4.9866 5.73194 5.0119 5.60905 5.06218C5.48615 5.11246 5.3745 5.18671 5.2806 5.2806C5.18671 5.3745 5.11246 5.48615 5.06218 5.60905C5.0119 5.73194 4.9866 5.86362 4.98775 5.9964C4.9889 6.12918 5.01649 6.2604 5.0689 6.3824C5.12131 6.50441 5.19749 6.61475 5.293 6.707L6.707 5.293ZM9 9L9.707 9.707C9.89447 9.51947 9.99979 9.26516 9.99979 9C9.99979 8.73484 9.89447 8.48053 9.707 8.293L9 9ZM5.293 11.293C5.19749 11.3852 5.12131 11.4956 5.0689 11.6176C5.01649 11.7396 4.9889 11.8708 4.98775 12.0036C4.9866 12.1364 5.0119 12.2681 5.06218 12.391C5.11246 12.5139 5.18671 12.6255 5.2806 12.7194C5.3745 12.8133 5.48615 12.8875 5.60905 12.9378C5.73194 12.9881 5.86362 13.0134 5.9964 13.0123C6.12918 13.0111 6.2604 12.9835 6.3824 12.9311C6.50441 12.8787 6.61475 12.8025 6.707 12.707L5.293 11.293ZM5 2H15V0H5V2ZM18 5V15H20V5H18ZM15 18H5V20H15V18ZM2 15V5H0V15H2ZM5 18C4.20435 18 3.44129 17.6839 2.87868 17.1213C2.31607 16.5587 2 15.7956 2 15H0C0 16.3261 0.526784 17.5979 1.46447 18.5355C2.40215 19.4732 3.67392 20 5 20V18ZM18 15C18 15.7956 17.6839 16.5587 17.1213 17.1213C16.5587 17.6839 15.7956 18 15 18V20C16.3261 20 17.5979 19.4732 18.5355 18.5355C19.4732 17.5979 20 16.3261 20 15H18ZM15 2C15.7956 2 16.5587 2.31607 17.1213 2.87868C17.6839 3.44129 18 4.20435 18 5H20C20 3.67392 19.4732 2.40215 18.5355 1.46447C17.5979 0.526784 16.3261 0 15 0V2ZM5 0C3.67392 0 2.40215 0.526784 1.46447 1.46447C0.526784 2.40215 0 3.67392 0 5H2C2 4.20435 2.31607 3.44129 2.87868 2.87868C3.44129 2.31607 4.20435 2 5 2V0ZM14 14H6V16H14V14ZM5.293 6.707L8.293 9.707L9.707 8.293L6.707 5.293L5.293 6.707ZM8.293 8.293L5.293 11.293L6.707 12.707L9.707 9.707L8.293 8.293Z" fill="black"/>
</mask>
<g mask="url(#mask0_27_43)">
<rect width="20" height="20" fill="white"/>
</g>
</svg>
