<svg width="14" height="14" viewBox="0 0 14 14" fill="none" xmlns="http://www.w3.org/2000/svg">
<mask id="mask0_24_13" style="mask-type:alpha" maskUnits="userSpaceOnUse" x="0" y="0" width="14" height="14">
<g clip-path="url(#clip0_24_13)">
<path d="M4.5 8L7 10.5M7 10.5L9.5 8M7 10.5V3.5" stroke="black" stroke-linecap="round" stroke-linejoin="round"/>
<path d="M7 13.5C8.72391 13.5 10.3772 12.8152 11.5962 11.5962C12.8152 10.3772 13.5 8.72391 13.5 7C13.5 5.27609 12.8152 3.62279 11.5962 2.40381C10.3772 1.18482 8.72391 0.5 7 0.5C5.27609 0.5 3.62279 1.18482 2.40381 2.40381C1.18482 3.62279 0.5 5.27609 0.5 7C0.5 8.72391 1.18482 10.3772 2.40381 11.5962C3.62279 12.8152 5.27609 13.5 7 13.5Z" stroke="black" stroke-linecap="round" stroke-linejoin="round"/>
</g>
</mask>
<g mask="url(#mask0_24_13)">
<rect width="14" height="14" fill="white"/>
</g>
<defs>
<clipPath id="clip0_24_13">
<rect width="14" height="14" fill="white"/>
</clipPath>
</defs>
</svg>
