<svg width="50" height="22" viewBox="0 0 50 22" fill="none" xmlns="http://www.w3.org/2000/svg">
<rect width="50" height="22" rx="10" fill="white"/>
<path d="M12.7095 15.4883L12.8334 12.0801L9.95196 13.9081L9.20836 12.6068L12.2447 11.0267L9.20836 9.4465L9.95196 8.1452L12.8334 9.97322L12.7095 6.56504H14.1967L14.0728 9.97322L16.9542 8.1452L17.6978 9.4465L14.6614 11.0267L17.6978 12.6068L16.9542 13.9081L14.0728 12.0801L14.1967 15.4883H12.7095ZM23.6157 15.4883L23.7396 12.0801L20.8581 13.9081L20.1145 12.6068L23.1509 11.0267L20.1145 9.4465L20.8581 8.1452L23.7396 9.97322L23.6157 6.56504H25.1029L24.9789 9.97322L27.8604 8.1452L28.604 9.4465L25.5676 11.0267L28.604 12.6068L27.8604 13.9081L24.9789 12.0801L25.1029 15.4883H23.6157Z" fill="black"/>
<rect x="31" y="9" width="10" height="8" rx="1.33333" fill="black"/>
<path d="M39.1667 7V11.1667H32.8333V7C32.8333 5.2511 34.2511 3.83333 36 3.83333C37.7489 3.83333 39.1667 5.2511 39.1667 7Z" stroke="black" stroke-width="1.66667"/>
</svg>
