<svg width="14" height="14" viewBox="0 0 14 14" fill="none" xmlns="http://www.w3.org/2000/svg">
<mask id="mask0_29_49" style="mask-type:alpha" maskUnits="userSpaceOnUse" x="0" y="0" width="14" height="14">
<path d="M2.72998 11.9C3.17622 11.1675 3.80339 10.5621 4.55119 10.1421C5.29899 9.72201 6.14227 9.50136 6.99998 9.50136C7.85769 9.50136 8.70097 9.72201 9.44877 10.1421C10.1966 10.5621 10.8237 11.1675 11.27 11.9M6.99998 8C7.66302 8 8.29891 7.73661 8.76775 7.26777C9.23659 6.79893 9.49998 6.16304 9.49998 5.5C9.49998 4.83696 9.23659 4.20107 8.76775 3.73223C8.29891 3.26339 7.66302 3 6.99998 3C6.33694 3 5.70105 3.26339 5.23221 3.73223C4.76337 4.20107 4.49998 4.83696 4.49998 5.5C4.49998 6.16304 4.76337 6.79893 5.23221 7.26777C5.70105 7.73661 6.33694 8 6.99998 8Z" stroke="black" stroke-linecap="round" stroke-linejoin="round"/>
<path d="M7 13.5C8.72391 13.5 10.3772 12.8152 11.5962 11.5962C12.8152 10.3772 13.5 8.72391 13.5 7C13.5 5.27609 12.8152 3.62279 11.5962 2.40381C10.3772 1.18482 8.72391 0.5 7 0.5C5.27609 0.5 3.62279 1.18482 2.40381 2.40381C1.18482 3.62279 0.5 5.27609 0.5 7C0.5 8.72391 1.18482 10.3772 2.40381 11.5962C3.62279 12.8152 5.27609 13.5 7 13.5Z" stroke="black" stroke-linecap="round" stroke-linejoin="round"/>
</mask>
<g mask="url(#mask0_29_49)">
<rect width="14" height="14" fill="white"/>
</g>
</svg>
